<svg width="111" height="38" viewBox="0 0 111 38" fill="none" xmlns="http://www.w3.org/2000/svg">
<path d="M41.6704 8.51506C42.146 8.14151 42.6839 7.95128 43.2667 7.95128C44.8248 7.95128 45.7691 8.70875 46.1547 10.2686L46.172 10.3396H47.6973L47.6818 10.2341C47.6247 9.86051 47.5279 9.5008 47.393 9.16357C47.2581 8.82462 47.0644 8.4943 46.8188 8.18301C46.5732 7.87 46.2827 7.59675 45.9541 7.36848C45.6255 7.1402 45.2226 6.95688 44.7574 6.82372C44.2939 6.69056 43.7786 6.62311 43.2252 6.62311C42.3466 6.62311 41.5494 6.86177 40.8576 7.33562C40.1676 7.80601 39.6298 8.44761 39.2597 9.23794C38.8913 10.0265 38.7046 10.9137 38.7046 11.8735C38.7046 12.5981 38.8049 13.283 39.0037 13.9107C39.2026 14.5385 39.4897 15.0988 39.8598 15.5761C40.2316 16.0569 40.7124 16.4391 41.29 16.7123C41.8676 16.9856 42.523 17.1239 43.239 17.1239C43.6073 17.1239 43.9774 17.0841 44.3337 17.0063C44.6934 16.9268 45.0531 16.7953 45.4042 16.612C45.7552 16.4287 46.0804 16.1987 46.3674 15.9289C46.6562 15.6574 46.9156 15.3115 47.1387 14.8999C47.3618 14.4901 47.5279 14.0266 47.6316 13.5233L47.6541 13.4127H46.108L46.0873 13.4749C45.8469 14.1909 45.4699 14.7633 44.9666 15.1766C44.4669 15.5865 43.8962 15.794 43.2667 15.794C42.7893 15.794 42.3484 15.6833 41.9523 15.4637C41.5563 15.2441 41.2277 14.9484 40.9752 14.5852C40.721 14.2168 40.5204 13.7966 40.382 13.3314C40.2437 12.8679 40.1728 12.3768 40.1728 11.8735C40.1728 11.2112 40.3042 10.5747 40.5602 9.97984C40.8161 9.38839 41.1897 8.89552 41.6704 8.51851V8.51506Z" fill="#00E046"/>
<path d="M56.9149 8.15883C56.4809 7.68844 55.9413 7.3097 55.3118 7.03473C54.6823 6.75976 53.9957 6.62141 53.2711 6.62141C52.3061 6.62141 51.4328 6.86006 50.6753 7.33046C49.9196 7.80085 49.3316 8.44072 48.9286 9.23277C48.5274 10.0231 48.3234 10.9103 48.3234 11.8701C48.3234 12.8299 48.5274 13.7188 48.9286 14.5074C49.3316 15.2994 49.9196 15.9393 50.6753 16.4097C51.4311 16.8801 52.3044 17.1188 53.2711 17.1188C53.9957 17.1188 54.6823 16.9804 55.3118 16.7054C55.9413 16.4305 56.4809 16.0535 56.9149 15.5813C57.3473 15.1109 57.6932 14.5489 57.9387 13.9073C58.1843 13.2674 58.3088 12.5809 58.3088 11.8684C58.3088 11.1558 58.1843 10.4693 57.9387 9.82941C57.6932 9.18954 57.349 8.62576 56.9149 8.15537V8.15883ZM53.2711 15.8027C52.5742 15.8027 51.9568 15.6194 51.4363 15.2597C50.914 14.8982 50.5162 14.4192 50.2568 13.8347C49.9957 13.2467 49.8625 12.586 49.8625 11.8701C49.8625 11.1541 49.9957 10.4935 50.2568 9.9055C50.5162 9.32097 50.914 8.84366 51.4363 8.48395C51.9568 8.12597 52.5742 7.94439 53.2711 7.94439C53.9681 7.94439 54.5941 8.12597 55.1319 8.48395C55.6715 8.84366 56.0848 9.3227 56.3598 9.90896C56.6382 10.4987 56.7783 11.1576 56.7783 11.8684C56.7783 12.5791 56.6382 13.2397 56.3598 13.8312C56.0831 14.4192 55.6698 14.9 55.1319 15.2597C54.5941 15.6176 53.9681 15.7992 53.2711 15.7992V15.8027Z" fill="#00E046"/>
<path d="M64.5017 14.8895L61.5756 6.88768H59.4156V16.8541H60.8545V8.98196L63.7719 16.8541H65.2315L68.1438 8.98196V16.8541H69.5896V6.88768H67.4296L64.5017 14.8895Z" fill="#00E046"/>
<path d="M76.1958 14.8895L73.2697 6.88768H71.108V16.8541H72.5468V8.98196L75.466 16.8541H76.9256L79.8362 8.98196V16.8541H81.2819V6.88768H79.1219L76.1958 14.8895Z" fill="#00E046"/>
<path d="M90.9872 8.15883C90.5531 7.68844 90.0136 7.3097 89.3841 7.03473C88.7546 6.75976 88.068 6.62141 87.3434 6.62141C86.3784 6.62141 85.5051 6.86006 84.7476 7.33046C83.9919 7.80085 83.4039 8.44072 83.0009 9.23277C82.5997 10.0231 82.3956 10.9103 82.3956 11.8701C82.3956 12.8299 82.5997 13.7188 83.0009 14.5074C83.4039 15.2994 83.9919 15.9393 84.7476 16.4097C85.5033 16.8801 86.3767 17.1188 87.3434 17.1188C88.068 17.1188 88.7546 16.9804 89.3841 16.7054C90.0136 16.4305 90.5531 16.0535 90.9872 15.5813C91.4195 15.1109 91.7654 14.5489 92.011 13.9073C92.2566 13.2674 92.3811 12.5809 92.3811 11.8684C92.3811 11.1558 92.2566 10.4693 92.011 9.82941C91.7654 9.18954 91.4213 8.62576 90.9872 8.15537V8.15883ZM87.3434 15.8027C86.6465 15.8027 86.0291 15.6194 85.5085 15.2597C84.9863 14.8982 84.5885 14.4192 84.3291 13.8347C84.068 13.2467 83.9348 12.586 83.9348 11.8701C83.9348 11.1541 84.068 10.4935 84.3291 9.9055C84.5885 9.32097 84.9863 8.84366 85.5085 8.48395C86.0291 8.12597 86.6465 7.94439 87.3434 7.94439C88.0403 7.94439 88.6664 8.12597 89.2042 8.48395C89.7438 8.84366 90.1571 9.3227 90.4321 9.90896C90.7105 10.4987 90.8506 11.1576 90.8506 11.8684C90.8506 12.5791 90.7105 13.2397 90.4321 13.8312C90.1554 14.4192 89.7421 14.9 89.2042 15.2597C88.6664 15.6176 88.0403 15.7992 87.3434 15.7992V15.8027Z" fill="#00E046"/>
<path d="M100.155 14.7131L95.1429 6.88768H93.5V16.8472H94.9388V9.02L99.9523 16.8472H101.593V6.88768H100.155V14.7131Z" fill="#00E046"/>
<path d="M110.069 12.4632C109.888 12.2626 109.67 12.0793 109.424 11.9184C109.179 11.7593 108.933 11.6296 108.689 11.5345C108.449 11.4394 108.195 11.3599 107.933 11.2959L105.96 10.8462C105.519 10.7321 105.161 10.554 104.895 10.317C104.635 10.0853 104.509 9.82071 104.509 9.50942C104.509 9.0667 104.699 8.7018 105.09 8.39224C105.483 8.08268 106.029 7.92357 106.714 7.92357C107.083 7.92357 107.418 7.9841 107.709 8.10343C107.997 8.22276 108.229 8.3784 108.397 8.5669C108.566 8.75887 108.698 8.96639 108.786 9.18429C108.874 9.40219 108.919 9.62356 108.919 9.84146V9.93312H110.393V9.84146C110.393 9.43505 110.313 9.0373 110.154 8.66029C109.997 8.28329 109.767 7.93741 109.473 7.63304C109.177 7.32694 108.786 7.07791 108.309 6.89459C107.833 6.71128 107.297 6.61962 106.714 6.61962C106.055 6.61962 105.436 6.74932 104.876 7.00354C104.314 7.25949 103.861 7.61229 103.534 8.05674C103.204 8.50292 103.036 8.99579 103.036 9.52325C103.036 9.92101 103.112 10.2859 103.262 10.6058C103.413 10.9258 103.622 11.1956 103.883 11.4065C104.141 11.6123 104.412 11.7818 104.694 11.9098C104.974 12.036 105.279 12.1381 105.602 12.2124L107.575 12.6552C108.068 12.7779 108.464 12.9699 108.751 13.2241C109.035 13.4749 109.172 13.7723 109.172 14.1338C109.172 14.6094 108.933 15.0019 108.442 15.3322C107.984 15.6383 107.43 15.7974 106.797 15.8009H106.667C106.242 15.7836 105.858 15.7006 105.524 15.5536C105.192 15.4083 104.929 15.2233 104.741 15.0054C104.551 14.784 104.404 14.5506 104.309 14.3119C104.213 14.0733 104.165 13.8346 104.165 13.6029V13.5112H102.692V13.6029C102.692 13.9332 102.745 14.2669 102.851 14.5938C102.956 14.9206 103.119 15.2371 103.337 15.5363C103.555 15.8355 103.821 16.1053 104.13 16.3336C104.44 16.5636 104.821 16.7521 105.26 16.8939C105.699 17.034 106.18 17.11 106.692 17.1204H106.797C107.479 17.1204 108.118 16.9942 108.698 16.7451C109.307 16.4806 109.796 16.1139 110.149 15.6556C110.505 15.1939 110.687 14.682 110.687 14.1355C110.687 13.8017 110.629 13.4887 110.515 13.2016C110.401 12.9146 110.251 12.6673 110.067 12.4649L110.069 12.4632Z" fill="#00E046"/>
<path d="M46.0095 26.6977C45.8279 26.4971 45.61 26.3138 45.3644 26.153C45.1206 25.9939 44.8733 25.8642 44.6294 25.7691C44.389 25.6757 44.1348 25.5944 43.8737 25.5304L41.9005 25.0808C41.4595 24.9666 41.1015 24.7885 40.8352 24.5516C40.5757 24.3198 40.4495 24.0553 40.4495 23.744C40.4495 23.3012 40.6397 22.9363 41.0306 22.6268C41.4231 22.3172 41.9696 22.1581 42.6545 22.1581C43.0228 22.1581 43.3583 22.2186 43.6489 22.338C43.9377 22.4573 44.1694 22.6129 44.3372 22.8015C44.5066 22.9934 44.6381 23.2009 44.728 23.4188C44.8162 23.6367 44.8612 23.8581 44.8612 24.076V24.1677H46.3346V24.076C46.3346 23.6696 46.255 23.2718 46.0959 22.8948C45.9386 22.5178 45.7085 22.172 45.4163 21.8676C45.1206 21.5615 44.7297 21.3125 44.2524 21.1291C43.7768 20.9458 43.2407 20.8542 42.6562 20.8542C41.9973 20.8542 41.3782 20.9839 40.8179 21.2381C40.2558 21.494 39.8027 21.8468 39.4759 22.2913C39.1455 22.7375 38.9778 23.2321 38.9778 23.7578C38.9778 24.1556 39.0539 24.5205 39.2043 24.8404C39.3548 25.1603 39.5641 25.4301 39.8252 25.6411C40.0829 25.8469 40.3544 26.0164 40.6363 26.1443C40.9164 26.2706 41.2208 26.3726 41.5442 26.447L43.5174 26.8897C44.0103 27.0125 44.4046 27.2045 44.6934 27.4587C44.977 27.7094 45.1136 28.0069 45.1136 28.3683C45.1136 28.8439 44.875 29.2365 44.3838 29.5668C43.9256 29.8729 43.3722 30.032 42.7392 30.0355H42.6095C42.1841 30.0182 41.8001 29.9351 41.4664 29.7882C41.1343 29.6429 40.8715 29.4578 40.683 29.2399C40.4927 29.0186 40.3475 28.7851 40.2506 28.5465C40.1555 28.3095 40.1071 28.0691 40.1071 27.8374V27.7458H38.6337V27.8374C38.6337 28.1677 38.6873 28.5015 38.7928 28.8283C38.8983 29.1552 39.0608 29.4717 39.2787 29.7709C39.4966 30.07 39.7629 30.3381 40.0725 30.5681C40.3821 30.7981 40.7625 30.9866 41.2018 31.1284C41.6393 31.2685 42.1218 31.3446 42.6354 31.355H42.7409C43.4223 31.355 44.0622 31.2287 44.6415 30.9797C45.2503 30.7151 45.7397 30.3485 46.0925 29.8902C46.4487 29.4284 46.6303 28.9165 46.6303 28.3701C46.6303 28.0363 46.5732 27.7233 46.4591 27.4362C46.345 27.1491 46.1945 26.9018 46.0112 26.6995L46.0095 26.6977Z" fill="#00E046"/>
<path d="M55.1821 21.1291H46.843V22.4331H51.1682C51.1267 22.4469 51.0852 22.4607 51.0437 22.4746C50.8189 22.5541 50.6356 22.6769 50.4989 22.8395C50.3589 23.0055 50.288 23.2096 50.288 23.4448V31.0886H51.7268V23.3566C51.7268 23.2269 51.7458 23.111 51.7839 23.0107C51.8219 22.9104 51.8669 22.8291 51.9188 22.7686C51.9706 22.708 52.0346 22.6527 52.1107 22.606C52.1885 22.5576 52.2577 22.523 52.3182 22.5023C52.3805 22.4815 52.4479 22.4659 52.5171 22.4556C52.5898 22.4452 52.6365 22.4383 52.6624 22.4365C52.6849 22.4348 52.7022 22.4331 52.7143 22.4331H55.1804V21.1291H55.1821Z" fill="#00E046"/>
<path d="M59.5211 21.1291H56.9858L53.7017 31.0886H55.2271L56.2007 28.1625L60.3616 28.1556L61.3629 31.0886H62.8813L59.5401 21.1914L59.5194 21.1291H59.5211ZM59.9275 26.907H56.6192L58.25 22.0007L59.9275 26.907Z" fill="#00E046"/>
<path d="M65.8749 22.7496C66.3504 22.3761 66.8883 22.1858 67.4711 22.1858C69.0293 22.1858 69.9735 22.9433 70.3591 24.5032L70.3764 24.5741H71.9017L71.8862 24.4686C71.8291 24.0951 71.7323 23.7336 71.5974 23.3981C71.4608 23.0592 71.2688 22.7289 71.0232 22.4176C70.7777 22.1045 70.4871 21.8313 70.1585 21.603C69.83 21.3765 69.427 21.1932 68.9618 21.0583C68.4983 20.9251 67.983 20.8577 67.4296 20.8577C66.551 20.8577 65.7538 21.0963 65.062 21.5702C64.372 22.0406 63.8342 22.6822 63.4641 23.4725C63.0957 24.2611 62.909 25.1483 62.909 26.1081C62.909 26.8327 63.0093 27.5175 63.2082 28.1453C63.407 28.773 63.6941 29.3334 64.0642 29.8107C64.436 30.2914 64.9168 30.6736 65.4961 30.9469C66.0737 31.2201 66.7292 31.3585 67.4451 31.3585C67.8152 31.3585 68.1836 31.3187 68.5398 31.2409C68.8995 31.1613 69.2593 31.0299 69.6103 30.8466C69.9614 30.6632 70.2865 30.4332 70.5736 30.1635C70.8624 29.8919 71.1218 29.5461 71.3449 29.1345C71.568 28.7229 71.734 28.2611 71.8378 27.7579L71.8602 27.6472H70.3142L70.2934 27.7095C70.053 28.4254 69.676 28.9979 69.1728 29.4112C68.673 29.821 68.1023 30.0286 67.4728 30.0286C66.9955 30.0286 66.5528 29.9179 66.1585 29.6983C65.7625 29.4786 65.4339 29.1829 65.1814 28.8197C64.9272 28.4531 64.7266 28.0311 64.5882 27.5659C64.4499 27.1007 64.3789 26.6113 64.3789 26.1081C64.3789 25.4457 64.5104 24.8093 64.7663 24.2144C65.0223 23.6229 65.3958 23.1301 65.8766 22.7531L65.8749 22.7496Z" fill="#00E046"/>
<path d="M76.1889 26.2031C76.0661 26.2498 75.9208 26.3207 75.7531 26.4159L81.5154 21.1222H79.4834L74.373 25.9403V21.1222H72.9342V31.0886H74.373V27.687L74.9714 27.1353C74.98 27.1284 74.9887 27.1232 74.9974 27.1163C75.3052 26.907 75.6528 26.8413 76.0402 26.9312C76.4448 27.0177 76.7994 27.2529 77.0916 27.6316L79.62 31.0869H81.505L78.3178 26.8447C77.735 26.1028 77.0207 25.8832 76.1872 26.2014L76.1889 26.2031Z" fill="#00E046"/>
<path d="M32.0845 28.626C32.2055 31.7476 29.71 34.314 26.6162 34.314C23.9201 34.314 21.6805 32.365 21.2274 29.8003C21.1652 29.444 20.8158 29.2157 20.4682 29.3126C20.463 29.3126 20.4596 29.3143 20.4544 29.3161C20.1016 29.4129 19.9148 29.7951 20.0532 30.1341C20.3143 30.7722 20.4596 31.4709 20.4596 32.2041C20.4596 35.2997 17.8897 37.7952 14.7682 37.6724C11.9476 37.5617 9.6475 35.2755 9.52125 32.4566C9.44862 30.8552 10.0677 29.3991 11.1019 28.3545C11.3423 28.1124 11.3077 27.7129 11.0362 27.5071C11.0327 27.5037 11.0293 27.5019 11.0258 27.4985C10.756 27.2944 10.3669 27.367 10.1974 27.6593C9.20996 29.3489 7.34223 30.4609 5.22374 30.3675C2.40312 30.2413 0.115146 27.9412 0.00446563 25.1188C-0.11832 21.9956 2.37718 19.4257 5.47277 19.4257C5.66127 19.4257 5.84804 19.4361 6.03136 19.4551C6.39626 19.4932 6.71792 19.213 6.71619 18.8447V18.8308C6.71619 18.4625 6.39626 18.1823 6.03136 18.2203C5.84804 18.2394 5.66127 18.2497 5.47277 18.2497C2.37545 18.248 -0.12005 15.6782 0.00446563 12.5549C0.115146 9.73773 2.39793 7.43939 5.21509 7.30968C7.33877 7.21284 9.20823 8.32656 10.1974 10.0179C10.3669 10.3084 10.7578 10.3793 11.0258 10.177L11.0362 10.1683C11.3077 9.96255 11.3406 9.56306 11.1002 9.31922C10.1213 8.33002 9.51606 6.97245 9.51606 5.46962C9.51606 2.3135 12.1931 -0.220043 15.4011 0.015153C18.0679 0.210573 20.2261 2.35155 20.4423 5.01652C20.5149 5.91753 20.3697 6.7753 20.0532 7.54488C19.9148 7.88211 20.1016 8.26603 20.4544 8.36287L20.4682 8.36633C20.8158 8.46145 21.1652 8.2349 21.2274 7.88038C21.6788 5.31398 23.9201 3.36323 26.6162 3.36323C29.6426 3.36323 32.0966 5.82068 32.0879 8.85056C32.081 11.73 29.7948 14.1442 26.9206 14.2998C25.3053 14.388 23.8336 13.7741 22.7787 12.7365L22.7752 12.7417C21.3295 11.5086 19.4842 10.829 17.5802 10.829C13.1616 10.829 9.56794 14.4226 9.56794 18.8412C9.56794 23.2598 13.1616 26.8534 17.5802 26.8534C19.5465 26.8534 21.4315 26.1357 22.898 24.8335C23.9599 23.8495 25.4125 23.2805 26.9966 23.3877C29.7654 23.5745 31.9773 25.8573 32.0845 28.6312V28.626Z" fill="#00E046"/>
</svg>
