<svg width="13" height="16" viewBox="0 0 13 16" fill="none" xmlns="http://www.w3.org/2000/svg">
<g clip-path="url(#clip0_518_605)">
<path d="M10.8558 2.91504H1.29374C1.10485 2.91504 0.951172 3.06872 0.951172 3.25761V14.8121C0.951172 15.4671 1.48408 16.0001 2.13908 16.0001H10.0106C10.6656 16.0001 11.1985 15.4671 11.1985 14.8121V3.25761C11.1984 3.06872 11.0447 2.91504 10.8558 2.91504ZM10.0106 15.3149H2.13904C1.86183 15.3149 1.63628 15.0894 1.63628 14.8121V3.60018H10.5133V14.8121C10.5133 15.0894 10.2878 15.3149 10.0106 15.3149Z" fill="#003C00"/>
<path d="M10.9153 1.13281H1.23357C0.904015 1.13281 0.594227 1.26114 0.361243 1.49409C0.128293 1.72711 0 2.0369 0 2.36635C0 3.04684 0.553358 3.60043 1.23357 3.60043H10.9152C11.5954 3.60043 12.1488 3.04684 12.1488 2.36635C12.1488 1.68617 11.5954 1.13281 10.9153 1.13281ZM10.9153 2.91529H1.23357C0.931182 2.91529 0.685146 2.66905 0.685146 2.36635C0.685146 2.21986 0.742184 2.08212 0.845744 1.97852C0.949304 1.875 1.08702 1.81796 1.23357 1.81796H10.9152C11.2176 1.81796 11.4636 2.06396 11.4636 2.36635C11.4636 2.66901 11.2176 2.91529 10.9153 2.91529Z" fill="#003C00"/>
<path d="M7.47801 0H4.66932C3.83286 0 3.15234 0.608718 3.15234 1.35693V1.47529C3.15234 1.66418 3.30602 1.81786 3.49492 1.81786H8.65238C8.84128 1.81786 8.99496 1.66418 8.99496 1.47529V1.35693C8.99496 0.608718 8.31447 0 7.47801 0ZM8.26202 1.13272H3.88531C4.00168 0.868799 4.31565 0.685146 4.66936 0.685146H7.47804C7.83168 0.685146 8.14558 0.868799 8.26202 1.13272Z" fill="#003C00"/>
<path d="M3.49687 5.08691C3.30798 5.08691 3.1543 5.24059 3.1543 5.42949V13.0996C3.1543 13.2885 3.30798 13.4422 3.49687 13.4422C3.68576 13.4422 3.83944 13.2885 3.83944 13.0996V5.42949C3.83944 5.24059 3.68576 5.08691 3.49687 5.08691Z" fill="#003C00"/>
<path d="M6.07499 5.08691C5.8861 5.08691 5.73242 5.24059 5.73242 5.42949V13.0996C5.73242 13.2885 5.8861 13.4422 6.07499 13.4422C6.26389 13.4422 6.41757 13.2885 6.41757 13.0996V5.42949C6.41757 5.24059 6.26389 5.08691 6.07499 5.08691Z" fill="#003C00"/>
<path d="M8.65507 5.08691C8.46618 5.08691 8.3125 5.24059 8.3125 5.42949V13.0996C8.3125 13.2885 8.46618 13.4422 8.65507 13.4422C8.84397 13.4422 8.99765 13.2885 8.99765 13.0996V5.42949C8.99765 5.24059 8.84397 5.08691 8.65507 5.08691Z" fill="#003C00"/>
</g>
<defs>
<clipPath id="clip0_518_605">
<rect width="12.1488" height="16" fill="white"/>
</clipPath>
</defs>
</svg>
