<svg width="94" height="94" viewBox="0 0 94 94" fill="none" xmlns="http://www.w3.org/2000/svg">
<g id="Group 1806">
<rect id="Rectangle 10" width="94" height="94" rx="16" fill="#E8E9E3"/>
<g id="Group 1779">
<g id="Group 1778">
<path id="Vector" d="M83.5705 31.8931L78.8518 27.2175C78.276 26.6482 77.3399 26.6469 76.7641 27.2175L55.0705 48.7113C54.9869 48.7936 54.9229 48.8954 54.8838 49.0103L52.0152 57.5363C51.9238 57.8092 51.993 58.1108 52.1967 58.3145C52.3416 58.4607 52.5362 58.5391 52.7359 58.5391C52.8156 58.5391 52.8965 58.526 52.9736 58.5012L61.5648 55.664C61.6771 55.63 61.7829 55.5687 61.8717 55.4812L83.5666 33.9847C83.8473 33.7066 84.0014 33.3358 84.0001 32.9389C84.0001 32.5433 83.8447 32.1725 83.5666 31.897L83.5705 31.8931ZM53.9411 56.5806L55.9361 50.6515L59.9249 54.6051L53.9411 56.5806ZM61.3403 53.8674L56.6843 49.2532L73.97 32.1268L78.6273 36.741L61.3416 53.8674H61.3403ZM79.7057 35.6703L75.0484 31.0561L77.8073 28.3234L82.4633 32.9376L79.7044 35.6703H79.7057Z" fill="#003C00"/>
<path id="Vector_2" d="M65.8747 68.1368C65.8747 69.2727 64.9385 70.1971 63.7869 70.1971H31.6075C30.4573 70.1971 29.5198 69.2727 29.5198 68.1368V26.5814C29.5198 25.4455 30.456 24.5211 31.6075 24.5211H63.7869C64.9385 24.5211 65.8747 25.4455 65.8747 26.5814V34.3554H67.3945V26.5814C67.3945 24.6073 65.7755 23 63.7869 23H31.6075C29.619 23 28 24.606 28 26.5814V68.1368C28 70.111 29.619 71.7182 31.6075 71.7182H63.7869C65.7755 71.7182 67.3945 70.1123 67.3945 68.1368V55.1076H65.8747V68.1368Z" fill="#003C00"/>
<path id="Vector_3" d="M58.6663 32.1514H36.7285V33.6712H58.6663V32.1514Z" fill="#003C00"/>
<path id="Vector_4" d="M50.0554 50.5703H36.7285V52.0901H50.0554V50.5703Z" fill="#003C00"/>
<path id="Vector_5" d="M48.1035 59.7808H36.7285V61.3006H48.1035V59.7808Z" fill="#003C00"/>
<path id="Vector_6" d="M58.6663 41.5444H36.7285V43.0642H58.6663V41.5444Z" fill="#003C00"/>
</g>
</g>
</g>
</svg>
