<svg width="208" height="27" viewBox="0 0 208 27" fill="none" xmlns="http://www.w3.org/2000/svg">
<g clip-path="url(#clip0_654_706)">
<path d="M10.946 21.3098V20.5132L13.5535 19.9157V19.2329L11.691 14.3109H5.21511L3.43853 19.2329V19.9157L6.01743 20.5132V21.3098H0V20.5132L1.69061 19.9157L7.67939 3.58483L6.7911 1.25184V0.739725H11.4331L18.826 19.9157L20.5452 20.5132V21.3098H10.946ZM5.70223 12.9737H11.2039L8.39575 5.51949L5.70223 12.9737Z" fill="#003C00"/>
<path d="M21.7248 21.3098V20.5132L23.0715 20.3709L23.7019 19.8588V2.27608L23.0715 1.76396L21.7248 1.62171V0.825079H31.7251C36.4818 0.825079 39.3759 2.70284 39.3759 5.7471C39.3759 8.56375 36.9689 10.3846 33.4444 10.47V10.5838C37.5993 10.726 39.9776 12.6322 39.9776 15.8757C39.9776 19.4036 37.0549 21.3098 31.4673 21.3098H21.7248ZM28.1147 19.8303H30.9801C33.6737 19.8303 35.3356 18.2655 35.3356 15.7619C35.3356 13.1159 33.559 11.4658 30.7509 11.4658H28.1147V19.8303ZM28.1147 10.2139H30.9515C33.4158 10.2139 34.9631 8.73446 34.9631 6.31612C34.9631 3.81243 33.2438 2.27608 30.407 2.27608H28.1147V10.2139Z" fill="#003C00"/>
<path d="M51.8242 21.7366C45.9787 21.7366 41.6805 17.3267 41.6805 11.1528C41.6805 4.86512 46.3226 0.398314 52.6838 0.398314C55.3201 0.398314 57.7843 1.19494 59.1884 1.82086L60.0194 8.13699H58.8445L57.8416 6.45838C55.4633 2.53214 53.6008 1.65016 51.9675 1.65016C48.7582 1.65016 46.4658 5.09273 46.4658 9.9294C46.4658 15.6765 49.0734 19.3751 53.4289 19.3751C55.492 19.3751 56.7528 18.4647 58.6726 16.5869L59.6755 17.6681C57.0966 20.5701 54.8043 21.7366 51.8242 21.7366Z" fill="#003C00"/>
<path d="M67.7565 21.3098V20.5132L69.1033 20.3709L69.7337 19.8588V2.27608L69.1033 1.76396L67.7565 1.62171V0.825079H76.5821V1.62171L75.0061 1.76396L74.2611 2.27608V20.058H79.5048L83.6884 13.7703H84.5767L83.717 20.8546V21.3098H67.7565Z" fill="#003C00"/>
<path d="M89.5565 21.6228C87.4934 21.6228 85.8887 20.3425 85.8887 18.2655C85.8887 16.3878 87.2355 14.8799 89.7571 13.8841L93.8833 12.2339V11.8641C93.8833 9.33193 93.3102 7.71022 92.0494 7.71022C90.76 7.71022 90.2442 9.24657 90.5594 11.8641H86.3472C86.3185 8.5922 88.9261 6.45838 92.7658 6.45838C96.061 6.45838 97.809 8.16544 97.809 11.3804V19.6596L98.3821 20.1718L99.5569 20.4278V21.0537L94.5424 21.4521H93.8833L93.9693 19.9726L94.0266 18.5216H93.8833C92.995 20.3994 91.5623 21.6228 89.5565 21.6228ZM89.6998 17.3551C89.6998 18.4362 90.4161 19.176 91.3331 19.176C92.4506 19.176 93.4535 18.1517 93.8833 16.7861V13.7418L91.9921 14.5669C90.4734 15.1928 89.6998 16.2171 89.6998 17.3551Z" fill="#003C00"/>
<path d="M105.158 21.7081C102.636 21.7081 101.118 19.9157 101.118 16.7861V8.25079L99.3697 7.88093V7.255L104.528 6.74289H105.043V16.53C105.043 18.1802 105.674 19.0622 106.877 19.0622C107.565 19.0622 108.31 18.7208 109.026 17.8672L109.427 17.3551H109.456V8.27924L107.364 7.88093V7.255L112.837 6.74289H113.382V19.6596L113.926 20.1718L115.13 20.4278V21.0537L110.115 21.4521H109.456L109.542 19.9726L109.714 18.1233H109.599L109.542 18.2371C108.568 20.5985 107.135 21.7081 105.158 21.7081Z" fill="#003C00"/>
<path d="M125.243 21.3098V20.5132L126.217 20.3709L126.704 19.8588V11.921C126.704 10.2993 125.873 9.30348 124.469 9.30348C123.953 9.30348 123.266 9.50263 122.492 10.2708L122.034 10.726V19.8588L122.521 20.3709L123.552 20.5132V21.3098H116.331V20.5132L117.535 20.3709L118.108 19.8588V8.73446L116.331 8.13699V7.51106L121.518 6.62908H122.034L121.89 9.21812L121.862 9.58799H121.976C123.151 7.48261 124.555 6.48683 126.418 6.48683C128.968 6.48683 130.63 8.36459 130.63 11.4373V19.8588L131.146 20.3709L132.235 20.5132V21.3098H125.243Z" fill="#003C00"/>
<path d="M139.294 21.7366C135.597 21.7366 132.847 18.7208 132.847 14.4247C132.847 9.58799 136.371 6.45838 140.125 6.45838C143.22 6.45838 145.082 8.5353 144.881 12.3193H140.555C141.156 9.18967 140.727 7.71022 139.466 7.71022C137.918 7.71022 136.801 10.0432 136.801 12.8883C136.801 16.53 138.577 19.0337 140.984 19.0337C142.073 19.0337 143.248 18.5216 144.194 17.5543L144.939 18.294C143.42 20.6554 141.5 21.7366 139.294 21.7366Z" fill="#003C00"/>
<path d="M145.826 21.3098V20.5132L147.029 20.3709L147.603 19.8588V2.13382L145.74 1.5079V0.88198L151.012 0H151.528V9.50263C152.674 7.45416 154.078 6.48683 155.912 6.48683C158.463 6.48683 160.125 8.36459 160.125 11.4373V19.8588L160.64 20.3709L161.729 20.5132V21.3098H154.737V20.5132L155.712 20.3709L156.199 19.8588V11.921C156.199 10.2993 155.368 9.30348 153.964 9.30348C153.448 9.30348 152.76 9.50263 151.987 10.2708L151.528 10.726V19.8588L152.044 20.3709L153.076 20.5132V21.3098H145.826Z" fill="#003C00"/>
<path d="M161.927 27V26.2034L163.131 26.0611L163.704 25.549V8.76291L161.927 8.16544V7.53951L167.114 6.65753H167.63L167.544 8.50685H167.744L168.002 8.19389C168.919 7.0274 170.208 6.45838 171.612 6.45838C174.85 6.45838 177.114 9.33193 177.114 13.2582C177.114 17.8957 173.991 21.509 169.75 21.509C169.12 21.509 168.403 21.4236 167.63 21.2529V25.549L168.575 26.0611L170.61 26.2034V27H161.927ZM167.63 19.0622L168.031 19.4036C168.546 19.8303 169.177 20.1433 169.893 20.1433C171.67 20.1433 172.931 17.981 172.931 14.5954C172.931 11.1243 171.612 8.67755 169.693 8.67755C168.89 8.67755 168.26 9.10432 167.744 9.61644L167.63 9.70179V19.0622Z" fill="#003C00"/>
<path d="M182.208 21.6228C180.145 21.6228 178.54 20.3425 178.54 18.2655C178.54 16.3878 179.887 14.8799 182.408 13.8841L186.534 12.2339V11.8641C186.534 9.33193 185.961 7.71022 184.701 7.71022C183.411 7.71022 182.895 9.24657 183.211 11.8641H178.998C178.97 8.5922 181.577 6.45838 185.417 6.45838C188.712 6.45838 190.46 8.16544 190.46 11.3804V19.6596L191.033 20.1718L192.208 20.4278V21.0537L187.194 21.4521H186.534L186.62 19.9726L186.678 18.5216H186.534C185.646 20.3994 184.213 21.6228 182.208 21.6228ZM182.351 17.3551C182.351 18.4362 183.067 19.176 183.984 19.176C185.102 19.176 186.105 18.1517 186.534 16.7861V13.7418L184.643 14.5669C183.125 15.1928 182.351 16.2171 182.351 17.3551Z" fill="#003C00"/>
<path d="M198.343 21.509C195.106 21.509 192.842 18.6354 192.842 14.7092C192.842 10.0717 195.965 6.45838 200.206 6.45838C200.836 6.45838 201.553 6.54373 202.326 6.71444V2.33298L199.432 1.5079V0.88198L205.65 0H206.252V19.6596L206.797 20.1718L208 20.4278V21.0537L202.985 21.4521H202.326L202.355 19.9726V19.4605H202.212L201.954 19.7734C201.037 20.9399 199.748 21.509 198.343 21.509ZM197.025 13.372C197.025 16.843 198.343 19.2898 200.263 19.2898C201.066 19.2898 201.696 18.863 202.212 18.3509L202.326 18.2655V8.90516L201.925 8.56375C201.409 8.13699 200.779 7.82402 200.063 7.82402C198.286 7.82402 197.025 9.9863 197.025 13.372Z" fill="#003C00"/>
</g>
<defs>
<clipPath id="clip0_654_706">
<rect width="208" height="27" fill="white"/>
</clipPath>
</defs>
</svg>
