<svg width="32" height="32" viewBox="0 0 32 32" fill="none" xmlns="http://www.w3.org/2000/svg">
<g clip-path="url(#clip0_518_618)">
<circle cx="16" cy="16" r="15.5" stroke="#E33D19"/>
<path d="M23.8052 8.19476C23.5456 7.93508 23.1232 7.93508 22.8618 8.19476L16 15.0566L9.13816 8.19476C8.87848 7.93508 8.45609 7.93508 8.19476 8.19476C7.93508 8.45444 7.93508 8.87684 8.19476 9.13816L15.0566 16L8.19476 22.8618C7.93508 23.1215 7.93508 23.5439 8.19476 23.8052C8.45444 24.0649 8.87684 24.0649 9.13816 23.8052L16 16.9434L22.8618 23.8052C23.1215 24.0649 23.5439 24.0649 23.8052 23.8052C24.0649 23.5456 24.0649 23.1232 23.8052 22.8618L16.9434 16L23.8052 9.13816C24.0649 8.87684 24.0649 8.45609 23.8052 8.19476Z" fill="#E33D19"/>
</g>
<defs>
<clipPath id="clip0_518_618">
<rect width="32" height="32" fill="white"/>
</clipPath>
</defs>
</svg>
