<svg width="261" height="30" viewBox="0 0 261 30" fill="none" xmlns="http://www.w3.org/2000/svg">
<path d="M9.168 21.5878V20.9158L11.352 20.4118V19.8358L9.792 15.6838H4.368L2.88 19.8358V20.4118L5.04 20.9158V21.5878H0V20.9158L1.416 20.4118L6.432 6.63582L5.688 4.66782V4.23582H9.576L15.768 20.4118L17.208 20.9158V21.5878H9.168ZM4.776 14.5558H9.384L7.032 8.26782L4.776 14.5558Z" fill="#003C00"/>
<path d="M18.1959 21.5878V20.9158L19.3239 20.7958L19.8519 20.3638V5.53182L19.3239 5.09982L18.1959 4.97982V4.30782H26.5719C30.5559 4.30782 32.9799 5.89182 32.9799 8.45982C32.9799 10.8358 30.9639 12.3718 28.0119 12.4438V12.5398C31.4919 12.6598 33.4839 14.2678 33.4839 17.0038C33.4839 19.9798 31.0359 21.5878 26.3559 21.5878H18.1959ZM23.5479 20.3398H25.9479C28.2039 20.3398 29.5959 19.0198 29.5959 16.9078C29.5959 14.6758 28.1079 13.2838 25.7559 13.2838H23.5479V20.3398ZM23.5479 12.2278H25.9239C27.9879 12.2278 29.2839 10.9798 29.2839 8.93982C29.2839 6.82782 27.8439 5.53182 25.4679 5.53182H23.5479V12.2278Z" fill="#003C00"/>
<path d="M43.4062 21.9478C38.5103 21.9478 34.9103 18.2278 34.9103 13.0198C34.9103 7.71582 38.7983 3.94782 44.1263 3.94782C46.3343 3.94782 48.3982 4.61982 49.5742 5.14782L50.2702 10.4758H49.2863L48.4463 9.05982C46.4543 5.74782 44.8942 5.00382 43.5262 5.00382C40.8382 5.00382 38.9183 7.90782 38.9183 11.9878C38.9183 16.8358 41.1023 19.9558 44.7503 19.9558C46.4783 19.9558 47.5343 19.1878 49.1423 17.6038L49.9823 18.5158C47.8223 20.9638 45.9022 21.9478 43.4062 21.9478Z" fill="#003C00"/>
<path d="M56.7506 21.5878V20.9158L57.8786 20.7958L58.4066 20.3638V5.53182L57.8786 5.09982L56.7506 4.97982V4.30782H64.1426V4.97982L62.8226 5.09982L62.1986 5.53182V20.5318H66.5906L70.0946 15.2278H70.8386L70.1186 21.2038V21.5878H56.7506Z" fill="#003C00"/>
<path d="M75.0096 21.8518C73.2816 21.8518 71.9376 20.7718 71.9376 19.0198C71.9376 17.4358 73.0656 16.1638 75.1776 15.3238L78.6336 13.9318V13.6198C78.6336 11.4838 78.1536 10.1158 77.0976 10.1158C76.0176 10.1158 75.5856 11.4118 75.8496 13.6198H72.3216C72.2976 10.8598 74.4816 9.05982 77.6976 9.05982C80.4576 9.05982 81.9216 10.4998 81.9216 13.2118V20.1958L82.4016 20.6278L83.3856 20.8438V21.3718L79.1856 21.7078H78.6336L78.7056 20.4598L78.7536 19.2358H78.6336C77.8896 20.8198 76.6896 21.8518 75.0096 21.8518ZM75.1296 18.2518C75.1296 19.1638 75.7296 19.7878 76.4976 19.7878C77.4336 19.7878 78.2736 18.9238 78.6336 17.7718V15.2038L77.0496 15.8998C75.7776 16.4278 75.1296 17.2918 75.1296 18.2518Z" fill="#003C00"/>
<path d="M88.0768 21.9238C85.9648 21.9238 84.6928 20.4118 84.6928 17.7718V10.5718L83.2288 10.2598V9.73182L87.5488 9.29982H87.9808V17.5558C87.9808 18.9478 88.5088 19.6918 89.5168 19.6918C90.0928 19.6918 90.7168 19.4038 91.3168 18.6838L91.6528 18.2518H91.6768V10.5958L89.9248 10.2598V9.73182L94.5088 9.29982H94.9648V20.1958L95.4208 20.6278L96.4288 20.8438V21.3718L92.2288 21.7078H91.6768L91.7488 20.4598L91.8928 18.8998H91.7968L91.7488 18.9958C90.9328 20.9878 89.7328 21.9238 88.0768 21.9238Z" fill="#003C00"/>
<path d="M104.899 21.5878V20.9158L105.715 20.7958L106.123 20.3638V13.6678C106.123 12.2998 105.427 11.4598 104.251 11.4598C103.819 11.4598 103.243 11.6278 102.595 12.2758L102.211 12.6598V20.3638L102.619 20.7958L103.483 20.9158V21.5878H97.4353V20.9158L98.4433 20.7958L98.9233 20.3638V10.9798L97.4353 10.4758V9.94782L101.779 9.20382H102.211L102.091 11.3878L102.067 11.6998H102.163C103.147 9.92382 104.323 9.08382 105.883 9.08382C108.019 9.08382 109.411 10.6678 109.411 13.2598V20.3638L109.843 20.7958L110.755 20.9158V21.5878H104.899Z" fill="#003C00"/>
<path d="M116.668 21.9478C113.572 21.9478 111.268 19.4038 111.268 15.7798C111.268 11.6998 114.22 9.05982 117.364 9.05982C119.956 9.05982 121.516 10.8118 121.348 14.0038H117.724C118.228 11.3638 117.868 10.1158 116.812 10.1158C115.516 10.1158 114.58 12.0838 114.58 14.4838C114.58 17.5558 116.068 19.6678 118.084 19.6678C118.996 19.6678 119.98 19.2358 120.772 18.4198L121.396 19.0438C120.124 21.0358 118.516 21.9478 116.668 21.9478Z" fill="#003C00"/>
<path d="M122.139 21.5878V20.9158L123.147 20.7958L123.627 20.3638V5.41182L122.067 4.88382V4.35582L126.483 3.61182H126.915V11.6278C127.875 9.89982 129.051 9.08382 130.587 9.08382C132.723 9.08382 134.115 10.6678 134.115 13.2598V20.3638L134.547 20.7958L135.459 20.9158V21.5878H129.603V20.9158L130.419 20.7958L130.827 20.3638V13.6678C130.827 12.2998 130.131 11.4598 128.955 11.4598C128.523 11.4598 127.947 11.6278 127.299 12.2758L126.915 12.6598V20.3638L127.347 20.7958L128.211 20.9158V21.5878H122.139Z" fill="#003C00"/>
<path d="M135.625 26.3878V25.7158L136.633 25.5958L137.113 25.1638V11.0038L135.625 10.4998V9.97182L139.969 9.22782H140.401L140.329 10.7878H140.497L140.713 10.5238C141.481 9.53982 142.561 9.05982 143.737 9.05982C146.449 9.05982 148.345 11.4838 148.345 14.7958C148.345 18.7078 145.729 21.7558 142.177 21.7558C141.649 21.7558 141.049 21.6838 140.401 21.5398V25.1638L141.193 25.5958L142.897 25.7158V26.3878H135.625ZM140.401 19.6918L140.737 19.9798C141.169 20.3398 141.697 20.6038 142.297 20.6038C143.785 20.6038 144.841 18.7798 144.841 15.9238C144.841 12.9958 143.737 10.9318 142.129 10.9318C141.457 10.9318 140.929 11.2918 140.497 11.7238L140.401 11.7958V19.6918Z" fill="#003C00"/>
<path d="M152.611 21.8518C150.883 21.8518 149.539 20.7718 149.539 19.0198C149.539 17.4358 150.667 16.1638 152.779 15.3238L156.235 13.9318V13.6198C156.235 11.4838 155.755 10.1158 154.699 10.1158C153.619 10.1158 153.187 11.4118 153.451 13.6198H149.923C149.899 10.8598 152.083 9.05982 155.299 9.05982C158.059 9.05982 159.523 10.4998 159.523 13.2118V20.1958L160.003 20.6278L160.987 20.8438V21.3718L156.787 21.7078H156.235L156.307 20.4598L156.355 19.2358H156.235C155.491 20.8198 154.291 21.8518 152.611 21.8518ZM152.731 18.2518C152.731 19.1638 153.331 19.7878 154.099 19.7878C155.035 19.7878 155.875 18.9238 156.235 17.7718V15.2038L154.651 15.8998C153.379 16.4278 152.731 17.2918 152.731 18.2518Z" fill="#003C00"/>
<path d="M166.126 21.7558C163.414 21.7558 161.518 19.3318 161.518 16.0198C161.518 12.1078 164.134 9.05982 167.686 9.05982C168.214 9.05982 168.814 9.13182 169.462 9.27582V5.57982L167.038 4.88382V4.35582L172.246 3.61182H172.75V20.1958L173.206 20.6278L174.214 20.8438V21.3718L170.014 21.7078H169.462L169.486 20.4598V20.0278H169.366L169.15 20.2918C168.382 21.2758 167.302 21.7558 166.126 21.7558ZM165.022 14.8918C165.022 17.8198 166.126 19.8838 167.734 19.8838C168.406 19.8838 168.934 19.5238 169.366 19.0918L169.462 19.0198V11.1238L169.126 10.8358C168.694 10.4758 168.166 10.2118 167.566 10.2118C166.078 10.2118 165.022 12.0358 165.022 14.8918Z" fill="#003C00"/>
<path d="M182.214 0.75V29.25" stroke="#003C00"/>
<path d="M216.53 8.48044C216.83 8.24454 217.169 8.1244 217.538 8.1244C218.522 8.1244 219.118 8.60276 219.361 9.58786L219.372 9.63264H220.336L220.326 9.56602C220.29 9.33012 220.229 9.10296 220.143 8.88999C220.058 8.67593 219.936 8.46733 219.781 8.27075C219.626 8.07307 219.442 7.90051 219.235 7.75635C219.027 7.61219 218.773 7.49642 218.479 7.41233C218.186 7.32824 217.861 7.28564 217.511 7.28564C216.957 7.28564 216.453 7.43636 216.016 7.7356C215.58 8.03266 215.241 8.43784 215.007 8.93695C214.774 9.43496 214.656 9.99523 214.656 10.6014C214.656 11.059 214.72 11.4915 214.845 11.8879C214.971 12.2843 215.152 12.6382 215.386 12.9396C215.621 13.2432 215.924 13.4846 216.289 13.6572C216.654 13.8297 217.068 13.9171 217.52 13.9171C217.753 13.9171 217.986 13.892 218.211 13.8428C218.439 13.7926 218.666 13.7096 218.887 13.5938C219.109 13.478 219.314 13.3328 219.496 13.1624C219.678 12.991 219.842 12.7725 219.983 12.5126C220.124 12.2538 220.229 11.9611 220.294 11.6433L220.308 11.5734H219.332L219.319 11.6127C219.167 12.0648 218.929 12.4263 218.611 12.6873C218.295 12.9462 217.935 13.0772 217.538 13.0772C217.236 13.0772 216.958 13.0073 216.708 12.8686C216.457 12.7299 216.25 12.5432 216.09 12.3138C215.93 12.0812 215.803 11.8158 215.716 11.522C215.628 11.2293 215.584 10.9192 215.584 10.6014C215.584 10.1831 215.667 9.78117 215.828 9.40548C215.99 9.03197 216.226 8.72071 216.53 8.48262V8.48044Z" fill="#003C00"/>
<path d="M226.157 8.25547C225.883 7.95841 225.542 7.71924 225.144 7.54559C224.747 7.37194 224.313 7.28457 223.856 7.28457C223.246 7.28457 222.695 7.43528 222.216 7.73234C221.739 8.0294 221.368 8.43349 221.113 8.93369C220.86 9.4328 220.731 9.99306 220.731 10.5992C220.731 11.2053 220.86 11.7667 221.113 12.2647C221.368 12.7649 221.739 13.169 222.216 13.4661C222.694 13.7631 223.245 13.9138 223.856 13.9138C224.313 13.9138 224.747 13.8265 225.144 13.6528C225.542 13.4792 225.883 13.2411 226.157 12.9429C226.43 12.6459 226.648 12.2909 226.803 11.8857C226.958 11.4816 227.037 11.0481 227.037 10.5981C227.037 10.1481 226.958 9.71457 226.803 9.31048C226.648 8.90639 226.431 8.55035 226.157 8.25329V8.25547ZM223.856 13.0827C223.415 13.0827 223.026 12.9669 222.697 12.7398C222.367 12.5115 222.116 12.209 221.952 11.8399C221.787 11.4685 221.703 11.0513 221.703 10.5992C221.703 10.1471 221.787 9.72986 221.952 9.35853C222.116 8.98939 222.367 8.68796 222.697 8.4608C223.026 8.23472 223.415 8.12005 223.856 8.12005C224.296 8.12005 224.691 8.23472 225.031 8.4608C225.371 8.68796 225.632 8.99048 225.806 9.36071C225.982 9.73313 226.07 10.1492 226.07 10.5981C226.07 11.047 225.982 11.4642 225.806 11.8377C225.631 12.209 225.37 12.5126 225.031 12.7398C224.691 12.9659 224.296 13.0805 223.856 13.0805V13.0827Z" fill="#003C00"/>
<path d="M230.948 12.506L229.1 7.45272H227.736V13.7467H228.645V8.77529L230.487 13.7467H231.409L233.248 8.77529V13.7467H234.161V7.45272H232.797L230.948 12.506Z" fill="#003C00"/>
<path d="M238.333 12.506L236.485 7.45272H235.12V13.7467H236.028V8.77529L237.872 13.7467H238.794L240.632 8.77529V13.7467H241.545V7.45272H240.181L238.333 12.506Z" fill="#003C00"/>
<path d="M247.674 8.25547C247.4 7.95841 247.059 7.71924 246.662 7.54559C246.264 7.37194 245.83 7.28457 245.373 7.28457C244.763 7.28457 244.212 7.43528 243.734 7.73234C243.256 8.0294 242.885 8.43349 242.63 8.93369C242.377 9.4328 242.248 9.99306 242.248 10.5992C242.248 11.2053 242.377 11.7667 242.63 12.2647C242.885 12.7649 243.256 13.169 243.734 13.4661C244.211 13.7631 244.762 13.9138 245.373 13.9138C245.83 13.9138 246.264 13.8265 246.662 13.6528C247.059 13.4792 247.4 13.2411 247.674 12.9429C247.947 12.6459 248.165 12.2909 248.32 11.8857C248.476 11.4816 248.554 11.0481 248.554 10.5981C248.554 10.1481 248.476 9.71457 248.32 9.31048C248.165 8.90639 247.948 8.55035 247.674 8.25329V8.25547ZM245.373 13.0827C244.933 13.0827 244.543 12.9669 244.214 12.7398C243.884 12.5115 243.633 12.209 243.469 11.8399C243.304 11.4685 243.22 11.0513 243.22 10.5992C243.22 10.1471 243.304 9.72986 243.469 9.35853C243.633 8.98939 243.884 8.68796 244.214 8.4608C244.543 8.23472 244.933 8.12005 245.373 8.12005C245.813 8.12005 246.208 8.23472 246.548 8.4608C246.889 8.68796 247.15 8.99048 247.323 9.36071C247.499 9.73313 247.588 10.1492 247.588 10.5981C247.588 11.047 247.499 11.4642 247.323 11.8377C247.149 12.209 246.888 12.5126 246.548 12.7398C246.208 12.9659 245.813 13.0805 245.373 13.0805V13.0827Z" fill="#003C00"/>
<path d="M253.463 12.3946L250.298 7.45272H249.261V13.7423H250.169V8.79932L253.336 13.7423H254.372V7.45272H253.463V12.3946Z" fill="#003C00"/>
<path d="M259.725 10.9738C259.61 10.8471 259.472 10.7313 259.317 10.6297C259.162 10.5293 259.007 10.4474 258.853 10.3873C258.701 10.3272 258.541 10.277 258.376 10.2366L257.13 9.95262C256.851 9.88053 256.625 9.76804 256.457 9.61842C256.293 9.47208 256.213 9.30498 256.213 9.10839C256.213 8.82881 256.333 8.59837 256.58 8.40288C256.828 8.20738 257.173 8.10691 257.606 8.10691C257.838 8.10691 258.05 8.14513 258.234 8.22049C258.416 8.29585 258.562 8.39414 258.668 8.51318C258.775 8.63441 258.858 8.76546 258.914 8.90307C258.97 9.04068 258.998 9.18048 258.998 9.31808V9.37597H259.929V9.31808C259.929 9.06143 259.879 8.81024 259.778 8.57216C259.679 8.33407 259.533 8.11564 259.348 7.92343C259.161 7.73012 258.914 7.57285 258.613 7.45709C258.312 7.34132 257.974 7.28344 257.606 7.28344C257.19 7.28344 256.799 7.36535 256.445 7.52589C256.09 7.68753 255.804 7.91032 255.597 8.191C255.389 8.47277 255.283 8.78403 255.283 9.11713C255.283 9.36832 255.331 9.59876 255.426 9.80081C255.521 10.0029 255.653 10.1732 255.818 10.3065C255.981 10.4364 256.152 10.5435 256.33 10.6243C256.507 10.704 256.699 10.7684 256.904 10.8154L258.15 11.095C258.461 11.1725 258.711 11.2938 258.892 11.4543C259.071 11.6127 259.158 11.8005 259.158 12.0288C259.158 12.3291 259.007 12.577 258.697 12.7856C258.407 12.9789 258.058 13.0794 257.658 13.0816H257.576C257.308 13.0707 257.065 13.0182 256.854 12.9254C256.645 12.8337 256.479 12.7168 256.36 12.5792C256.24 12.4394 256.147 12.292 256.087 12.1413C256.027 11.9905 255.996 11.8398 255.996 11.6935V11.6356H255.065V11.6935C255.065 11.9021 255.099 12.1129 255.166 12.3193C255.233 12.5257 255.335 12.7255 255.473 12.9145C255.61 13.1034 255.779 13.2738 255.974 13.418C256.17 13.5632 256.41 13.6823 256.687 13.7718C256.965 13.8603 257.268 13.9083 257.592 13.9149H257.658C258.089 13.9149 258.493 13.8352 258.858 13.6779C259.243 13.5108 259.552 13.2793 259.775 12.9898C260 12.6982 260.114 12.375 260.114 12.0299C260.114 11.8191 260.078 11.6214 260.006 11.4401C259.934 11.2588 259.839 11.1026 259.723 10.9749L259.725 10.9738Z" fill="#003C00"/>
<path d="M219.27 19.9631C219.155 19.8364 219.017 19.7207 218.862 19.6191C218.708 19.5186 218.552 19.4367 218.398 19.3767C218.246 19.3177 218.086 19.2664 217.921 19.2259L216.675 18.942C216.396 18.8699 216.17 18.7574 216.002 18.6078C215.838 18.4614 215.758 18.2944 215.758 18.0978C215.758 17.8182 215.879 17.5877 216.125 17.3922C216.373 17.1968 216.718 17.0963 217.151 17.0963C217.384 17.0963 217.595 17.1345 217.779 17.2099C217.961 17.2852 218.108 17.3835 218.214 17.5026C218.321 17.6238 218.404 17.7548 218.46 17.8924C218.516 18.0301 218.544 18.1698 218.544 18.3075V18.3653H219.475V18.3075C219.475 18.0508 219.425 17.7996 219.324 17.5615C219.225 17.3234 219.08 17.105 218.895 16.9128C218.708 16.7195 218.461 16.5622 218.16 16.4465C217.86 16.3307 217.521 16.2728 217.152 16.2728C216.736 16.2728 216.345 16.3547 215.991 16.5153C215.636 16.6769 215.35 16.8997 215.144 17.1804C214.935 17.4621 214.829 17.7745 214.829 18.1065C214.829 18.3577 214.877 18.5881 214.972 18.7902C215.067 18.9922 215.199 19.1626 215.364 19.2958C215.527 19.4258 215.698 19.5328 215.876 19.6136C216.053 19.6934 216.246 19.7578 216.45 19.8048L217.696 20.0844C218.007 20.1619 218.256 20.2831 218.439 20.4437C218.618 20.602 218.704 20.7899 218.704 21.0181C218.704 21.3185 218.553 21.5664 218.243 21.775C217.954 21.9683 217.604 22.0688 217.204 22.071H217.123C216.854 22.06 216.611 22.0076 216.401 21.9148C216.191 21.823 216.025 21.7062 215.906 21.5686C215.786 21.4288 215.694 21.2813 215.633 21.1306C215.573 20.981 215.542 20.8292 215.542 20.6829V20.625H214.612V20.6829C214.612 20.8914 214.646 21.1022 214.712 21.3086C214.779 21.5151 214.881 21.7149 215.019 21.9039C215.157 22.0928 215.325 22.2621 215.52 22.4073C215.716 22.5526 215.956 22.6716 216.234 22.7612C216.51 22.8496 216.815 22.8977 217.139 22.9043H217.206C217.636 22.9043 218.04 22.8245 218.406 22.6673C218.79 22.5002 219.099 22.2686 219.322 21.9792C219.547 21.6876 219.662 21.3643 219.662 21.0192C219.662 20.8084 219.626 20.6108 219.554 20.4295C219.482 20.2482 219.387 20.092 219.271 19.9642L219.27 19.9631Z" fill="#003C00"/>
<path d="M225.062 16.4464H219.796V17.2699H222.528C222.501 17.2787 222.475 17.2874 222.449 17.2961C222.307 17.3464 222.191 17.4239 222.105 17.5266C222.016 17.6314 221.972 17.7603 221.972 17.9088V22.7361H222.88V17.8531C222.88 17.7712 222.892 17.698 222.916 17.6347C222.94 17.5713 222.969 17.52 223.001 17.4818C223.034 17.4436 223.075 17.4086 223.123 17.3791C223.172 17.3486 223.216 17.3267 223.254 17.3136C223.293 17.3005 223.336 17.2907 223.379 17.2841C223.425 17.2776 223.455 17.2732 223.471 17.2721C223.485 17.271 223.496 17.2699 223.504 17.2699H225.061V16.4464H225.062Z" fill="#003C00"/>
<path d="M227.803 16.4464H226.201L224.127 22.7361H225.091L225.706 20.8882L228.333 20.8838L228.966 22.7361H229.925L227.815 16.4858L227.801 16.4464H227.803ZM228.059 20.0953H225.97L227 16.9969L228.059 20.0953Z" fill="#003C00"/>
<path d="M231.815 17.4698C232.115 17.2339 232.455 17.1138 232.823 17.1138C233.807 17.1138 234.403 17.5921 234.647 18.5772L234.658 18.622H235.621L235.611 18.5554C235.575 18.3195 235.514 18.0912 235.429 17.8794C235.343 17.6653 235.221 17.4567 235.066 17.2601C234.911 17.0624 234.728 16.8899 234.52 16.7457C234.313 16.6027 234.058 16.4869 233.764 16.4017C233.472 16.3176 233.146 16.275 232.797 16.275C232.242 16.275 231.739 16.4257 231.302 16.725C230.866 17.022 230.526 17.4272 230.293 17.9263C230.06 18.4243 229.942 18.9846 229.942 19.5907C229.942 20.0483 230.005 20.4808 230.131 20.8773C230.257 21.2737 230.438 21.6276 230.672 21.929C230.906 22.2326 231.21 22.474 231.576 22.6465C231.941 22.8191 232.355 22.9065 232.807 22.9065C233.04 22.9065 233.273 22.8813 233.498 22.8322C233.725 22.782 233.952 22.699 234.174 22.5832C234.396 22.4674 234.601 22.3222 234.782 22.1518C234.965 21.9803 235.129 21.7619 235.269 21.502C235.41 21.242 235.515 20.9504 235.581 20.6326L235.595 20.5627H234.619L234.605 20.6021C234.454 21.0542 234.216 21.4157 233.898 21.6767C233.582 21.9356 233.222 22.0666 232.824 22.0666C232.523 22.0666 232.243 21.9967 231.994 21.858C231.744 21.7193 231.537 21.5326 231.377 21.3032C231.217 21.0717 231.09 20.8052 231.002 20.5114C230.915 20.2176 230.87 19.9085 230.87 19.5907C230.87 19.1724 230.953 18.7705 231.115 18.3948C231.277 18.0213 231.513 17.7101 231.816 17.472L231.815 17.4698Z" fill="#003C00"/>
<path d="M238.329 19.6508C238.251 19.6803 238.159 19.725 238.053 19.7851L241.692 16.4421H240.409L237.182 19.4848V16.4421H236.273V22.7361H237.182V20.5878L237.56 20.2394C237.565 20.2351 237.571 20.2318 237.576 20.2274C237.77 20.0953 237.99 20.0538 238.235 20.1106C238.49 20.1652 238.714 20.3137 238.899 20.5529L240.495 22.735H241.686L239.673 20.056C239.305 19.5874 238.854 19.4487 238.327 19.6497L238.329 19.6508Z" fill="#003C00"/>
<path d="M210.476 21.1809C210.552 23.1522 208.976 24.7729 207.022 24.7729C205.32 24.7729 203.906 23.5421 203.619 21.9224C203.58 21.6975 203.359 21.5533 203.14 21.6145C203.137 21.6145 203.134 21.6155 203.131 21.6166C202.908 21.6778 202.79 21.9192 202.878 22.1332C203.043 22.5362 203.134 22.9774 203.134 23.4405C203.134 25.3954 201.512 26.9714 199.54 26.8938C197.759 26.8239 196.306 25.3801 196.227 23.6C196.181 22.5886 196.572 21.6691 197.225 21.0094C197.377 20.8565 197.355 20.6042 197.183 20.4743C197.181 20.4721 197.179 20.471 197.177 20.4688C197.006 20.3399 196.761 20.3858 196.654 20.5704C196.03 21.6374 194.851 22.3396 193.513 22.2807C191.731 22.2009 190.287 20.7484 190.217 18.966C190.139 16.9936 191.715 15.3707 193.67 15.3707C193.789 15.3707 193.907 15.3773 194.023 15.3893C194.253 15.4133 194.456 15.2364 194.455 15.0038V14.995C194.455 14.7624 194.253 14.5855 194.023 14.6095C193.907 14.6215 193.789 14.6281 193.67 14.6281C191.714 14.627 190.138 13.0041 190.217 11.0317C190.287 9.25258 191.728 7.80113 193.507 7.71922C194.848 7.65806 196.029 8.3614 196.654 9.42951C196.761 9.61298 197.008 9.65776 197.177 9.52998L197.183 9.52452C197.355 9.39456 197.376 9.14227 197.224 8.98828C196.606 8.36358 196.223 7.50626 196.223 6.55719C196.223 4.56404 197.914 2.96407 199.94 3.1126C201.624 3.23601 202.987 4.58807 203.124 6.27105C203.169 6.84005 203.078 7.38175 202.878 7.86775C202.79 8.08072 202.908 8.32317 203.131 8.38433L203.14 8.38652C203.359 8.44658 203.58 8.30351 203.619 8.07963C203.904 6.4589 205.32 5.22697 207.022 5.22697C208.934 5.22697 210.483 6.77889 210.478 8.69232C210.474 10.5107 209.03 12.0353 207.215 12.1336C206.195 12.1893 205.265 11.8016 204.599 11.1463L204.597 11.1496C203.684 10.3709 202.518 9.94172 201.316 9.94172C198.526 9.94172 196.256 12.2112 196.256 15.0016C196.256 17.792 198.526 20.0614 201.316 20.0614C202.558 20.0614 203.748 19.6082 204.674 18.7858C205.345 18.1644 206.262 17.8051 207.263 17.8728C209.011 17.9908 210.408 19.4324 210.476 21.1842V21.1809Z" fill="#003C00"/>
</svg>
