<svg width="16" height="16" viewBox="0 0 16 16" fill="none" xmlns="http://www.w3.org/2000/svg">
<g clip-path="url(#clip0_518_597)">
<path d="M7.81 6.85742H8.19286C8.403 6.85742 8.57317 7.06756 8.57317 7.23773V11.8119C8.57317 12.022 8.40285 12.1922 8.19286 12.1922H7.81C7.59986 12.1922 7.42969 11.982 7.42969 11.8119V7.23773C7.42969 7.0276 7.60001 6.85742 7.81 6.85742Z" fill="#003C00"/>
<path d="M7.81 4.19141H8.19286C8.403 4.19141 8.57317 4.40154 8.57317 4.57172V5.33489C8.57317 5.54503 8.40285 5.7152 8.19286 5.7152H7.81C7.59986 5.7152 7.42969 5.50507 7.42969 5.33489V4.57172C7.42969 4.36158 7.60001 4.19141 7.81 4.19141Z" fill="#003C00"/>
<path d="M8 14.8565C9.8185 14.8565 11.5625 14.1342 12.8485 12.8484C14.1345 11.5626 14.8566 9.81861 14.8566 7.99992C14.8566 6.18123 14.1343 4.43745 12.8485 3.15146C11.5627 1.86547 9.81869 1.14334 8 1.14334C6.18131 1.14334 4.43753 1.86567 3.15154 3.15146C1.86555 4.43726 1.14342 6.18123 1.14342 7.99992C1.14342 9.81861 1.86574 11.5624 3.15154 12.8484C4.43734 14.1344 6.18131 14.8565 8 14.8565V14.8565ZM8 16C5.87827 16 3.84352 15.1572 2.34308 13.6569C0.842638 12.1566 0 10.1218 0 8C0 5.87816 0.842791 3.84352 2.34308 2.34308C3.84337 0.842638 5.87816 0 8 0C10.1218 0 12.1565 0.842791 13.6569 2.34308C15.1574 3.84337 16 5.87816 16 8C16 10.1218 15.1572 12.1565 13.6569 13.6569C12.1566 15.1574 10.1218 16 8 16V16Z" fill="#003C00"/>
</g>
<defs>
<clipPath id="clip0_518_597">
<rect width="16" height="16" fill="white"/>
</clipPath>
</defs>
</svg>
