<svg width="94" height="94" viewBox="0 0 94 94" fill="none" xmlns="http://www.w3.org/2000/svg">
<rect width="94" height="94" rx="16" fill="#E8E9E3"/>
<path d="M70.9951 43.5335L66.3615 36.4103C66.2232 36.2028 66.0157 36.1337 65.8083 36.1337H57.3711L61.5897 25.4143C61.6588 25.276 61.6588 25.0685 61.5897 24.9302C61.5205 24.7919 61.3822 24.6536 61.2439 24.5844L47.205 19.0519C47.0667 18.9827 46.8592 18.9827 46.7209 19.0519C46.5826 19.121 46.4443 19.2593 46.3751 19.3977L39.8743 36.0645H28.3251C28.1176 36.0645 27.9102 36.2028 27.7718 36.3412L23.1383 43.5335C23.0692 43.6718 23 43.741 23 43.8793V50.4492C23 50.795 23.2766 51.1408 23.6916 51.1408H24.7289V74.3084C24.7289 74.6542 25.0056 75 25.4205 75H68.8512C69.197 75 69.5428 74.7234 69.5428 74.3084V51.1408H70.5801C70.9259 51.1408 71.2717 50.8642 71.2717 50.4492V43.8793C71.1334 43.741 71.0642 43.6718 70.9951 43.5335ZM40.9117 37.0327L47.3433 20.5042L60.0682 25.5526L55.7805 36.5486L54.5357 39.6607H39.8743L40.9117 37.0327ZM28.6709 37.4477H39.2519L38.3529 39.6607H36.1399C35.7941 39.6607 35.4483 39.9373 35.4483 40.3523C35.4483 40.6981 35.7249 41.0438 36.1399 41.0438H54.8814H57.786C58.1318 41.0438 58.4776 40.7672 58.4776 40.3523C58.4776 40.0065 58.201 39.6607 57.786 39.6607H55.8496L56.7487 37.4477H65.3933L69.1278 43.1877H24.9364L28.6709 37.4477ZM68.0905 73.6169H26.0429V51.2099H68.0905V73.6169ZM69.7502 49.8268H24.3831V44.5709H69.8194V49.8268H69.7502Z" fill="#003C00"/>
</svg>
