<svg width="80" height="80" viewBox="0 0 80 80" fill="none" xmlns="http://www.w3.org/2000/svg">
<g id="Group 15">
<g id="Group 13">
<g id="Subtract">
<path d="M45.0808 65.3325C45.0811 65.329 45.0813 65.3254 45.0815 65.3219C45.0819 65.3145 45.0822 65.307 45.0837 65.2995" fill="#003C00"/>
<path fill-rule="evenodd" clip-rule="evenodd" d="M56.0866 52.0756L55.407 50.7651C55.3302 50.6169 55.2136 50.4921 55.07 50.4049C54.9263 50.3177 54.7611 50.2714 54.5925 50.2714C54.4239 50.2713 54.2586 50.3175 54.1149 50.4046C53.9713 50.4917 53.8547 50.6164 53.7778 50.7645L51.451 55.2524L46.2328 55.9741C46.0607 55.9979 45.8991 56.0697 45.7667 56.181C45.6344 56.2923 45.5368 56.4384 45.4849 56.6022C45.433 56.766 45.4287 56.941 45.4727 57.107C45.5166 57.273 45.607 57.4236 45.7337 57.5411L49.4861 61.0222L48.6019 65.9288C48.5719 66.0947 48.5889 66.266 48.6511 66.423C48.7132 66.5801 48.8182 66.7171 48.9546 66.8185C49.091 66.9199 49.2533 66.9816 49.4233 66.9965C49.5933 67.0114 49.7641 66.9788 49.9163 66.9026L54.5924 64.5623L59.2683 66.9025C59.4206 66.9787 59.5914 67.0114 59.7614 66.9965C59.9313 66.9816 60.0936 66.9199 60.23 66.8185C60.3663 66.7172 60.4713 66.5802 60.5335 66.4233C60.5957 66.2664 60.6128 66.0954 60.5829 65.9295L59.6988 61.0222L63.451 57.5412C63.5777 57.4237 63.668 57.2732 63.7119 57.1071C63.7558 56.9412 63.7516 56.7663 63.6997 56.6026C63.6477 56.4388 63.55 56.2927 63.4177 56.1813C63.2854 56.07 63.124 55.9981 62.952 55.9741L61.5874 55.1992L61.587 55.1991L62.9516 55.974L57.7339 55.2524L56.0866 52.0756ZM53.3463 56.832L53.346 56.8325L52.8629 56.5063C52.7956 56.6355 52.6982 56.747 52.5784 56.8314C52.4585 56.9158 52.3197 56.9705 52.1739 56.9907L48.3891 57.514L51.1012 60.0312C51.2133 60.1351 51.2973 60.2651 51.3456 60.4093C51.3938 60.5535 51.405 60.7073 51.3781 60.8568L50.7283 64.4579L54.1801 62.7305C54.308 62.6666 54.4492 62.6332 54.5924 62.6332C54.7357 62.6332 54.8769 62.6666 55.0047 62.7305L58.4565 64.4579L57.8068 60.8563C57.78 60.7069 57.7912 60.5531 57.8395 60.4091C57.8877 60.265 57.9716 60.135 58.0837 60.0311L58.0839 60.0309L60.7958 57.5139L57.0102 56.9907C56.8645 56.9704 56.726 56.9157 56.6063 56.8312C56.4865 56.7467 56.3891 56.635 56.322 56.5055L54.5923 53.1688L52.8631 56.5058L53.3463 56.832Z" fill="#003C00"/>
<path fill-rule="evenodd" clip-rule="evenodd" d="M18.1278 48.6242C18.3622 46.9667 18.6035 45.2612 18.8726 43.5693C19.3932 40.3301 20.377 36.375 23.3835 33.5368C24.9404 32.0868 26.7533 30.936 28.7308 30.1427L29.2207 29.9462L29.0716 29.4398C29.0117 29.2365 28.9797 29.0262 28.9762 28.8145V25.8382C28.9774 25.4882 29.056 25.1427 29.2066 24.8263C29.3574 24.5097 29.5766 24.2299 29.8488 24.007L30.2278 23.6966L29.9856 23.2707C29.4433 22.3172 28.7096 21.4853 27.8305 20.8269L27.8174 20.8171L27.8038 20.8081C27.502 20.6076 27.2498 20.3421 27.0656 20.0315C26.8814 19.7209 26.7699 19.373 26.7394 19.0138C26.7088 18.6547 26.76 18.2932 26.889 17.9563C27.0178 17.6203 27.2208 17.3172 27.4832 17.0695C28.7818 15.8727 30.4699 15.1812 32.2389 15.1219C32.6573 15.1222 33.0744 15.1685 33.4826 15.2599L33.8748 15.3477L34.3522 14.6194L34.3532 14.618C34.6833 14.1211 35.1321 13.7132 35.6595 13.4308C36.1875 13.1481 36.7777 13.0001 37.3774 13.0001C37.9771 13.0001 38.5673 13.1481 39.0952 13.4308C39.6226 13.7132 40.0714 14.1211 40.4016 14.6179L40.4025 14.6194L40.8799 15.3477L41.2721 15.2599C41.6803 15.1685 42.0974 15.1222 42.5158 15.1219C44.2848 15.1813 45.9729 15.8729 47.2716 17.0695C47.5428 17.3255 47.7503 17.6406 47.8781 17.9897C48.0063 18.3398 48.0508 18.7147 48.0081 19.0848C47.9655 19.4549 47.8368 19.8102 47.6323 20.1224C47.4277 20.4347 47.1527 20.6954 46.829 20.8838L46.8121 20.8937L46.7958 20.9047C45.9126 21.502 45.1969 22.3143 44.7167 23.2646L44.5029 23.6876L44.8746 23.9818C45.1558 24.2043 45.3829 24.4868 45.5393 24.8083C45.6956 25.1295 45.7773 25.4816 45.7785 25.8383L45.7785 25.839L45.7785 28.8147C45.7753 29.0265 45.7434 29.237 45.6838 29.4403L45.5352 29.9464L46.0247 30.1427C48.0012 30.9356 49.8133 32.0856 51.3697 33.5345C54.3774 36.3746 55.3613 40.3293 55.8827 43.5735C56.0319 44.5249 56.1757 45.4772 56.3139 46.4303C55.7649 46.2318 55.1827 46.1286 54.5928 46.1282L54.59 46.1282C54.5332 46.1285 54.4765 46.1297 54.4197 46.1318C54.3088 45.3731 54.193 44.615 54.0723 43.8573L54.0722 43.8565C53.5659 40.7049 52.6285 37.2345 50.1057 34.8527L50.1018 34.849L50.0978 34.8454C47.3941 32.3867 43.9511 30.8865 40.3038 30.5775C39.5968 30.5097 38.6164 30.4745 37.6446 30.4745L37.3827 30.4753H37.3795L37.1185 30.4745H37.1169C36.1448 30.4745 35.1645 30.5097 34.4512 30.5775C30.8038 30.8865 27.3607 32.3867 24.657 34.8454L24.653 34.849L24.649 34.8527C22.1263 37.2345 21.1888 40.7049 20.6825 43.8565L20.6823 43.8576C20.4078 45.5871 20.1671 47.2906 19.9272 48.988C19.6393 51.0254 19.3526 53.0542 19.0102 55.109L19.0101 55.1093C18.8161 56.278 18.7367 57.6208 19.0084 58.8648C19.2827 60.1209 19.9235 61.3043 21.181 62.0686L21.194 62.0765L21.2073 62.0837C22.3533 62.7007 23.6451 62.9976 24.9462 62.9432H44.9183L44.5903 64.7636H24.9234L24.9129 64.764C23.2706 64.8233 21.6444 64.4259 20.2164 63.6168C19.4644 63.1579 18.4915 62.3453 17.815 60.977C17.1382 59.6082 16.7336 57.6347 17.2022 54.8123C17.5339 52.8204 17.8237 50.7729 18.1031 48.7982L18.1278 48.6242ZM43.2273 29.2383L43.9459 29.4141V25.2566H30.8089V29.4147L31.5274 29.2391C32.4318 29.018 33.3506 28.8597 34.2771 28.7654C35.0164 28.6955 36.052 28.6542 37.116 28.6541H37.1169L37.3795 28.6549L37.6446 28.6541H37.6454C38.7125 28.6542 39.7465 28.6955 40.4895 28.7661C41.4119 28.8603 42.3267 29.018 43.2273 29.2383ZM28.7563 18.3795L28.22 18.8607L28.8042 19.2825C30.1592 20.2608 31.2331 21.5751 31.9194 23.0946L32.0738 23.4362H42.663L42.8102 23.0745C43.4391 21.5294 44.5266 20.2119 45.9278 19.2981L46.5617 18.8847L45.9984 18.3795C45.0482 17.5272 43.8364 17.0211 42.5608 16.9433L42.5399 16.942L42.519 16.9423C41.6906 16.9515 40.8903 17.2111 40.2203 17.6788L38.8612 15.6044L38.8578 15.5994C38.693 15.359 38.4719 15.1625 38.214 15.0268C37.956 14.8911 37.6688 14.8203 37.3774 14.8203C37.0859 14.8203 36.7987 14.8911 36.5408 15.0268C36.2828 15.1625 36.0617 15.359 35.897 15.5994L35.8935 15.6044L34.5344 17.6788C33.8644 17.2112 33.0641 16.9516 32.2358 16.9423L32.2149 16.942L32.194 16.9433C30.9183 17.021 29.7064 17.5271 28.7563 18.3795Z" fill="#003C00"/>
</g>
<path id="Vector" d="M37.0525 52.9743C37.0514 53.1744 37.1292 53.3669 37.2691 53.5099C37.4091 53.653 37.5998 53.7352 37.8 53.7385L37.8007 53.7385L37.1025 52.1245M37.0525 52.9743C37.0525 52.9742 37.0525 52.9742 37.0525 52.9741L37.1025 52.9744H37.0525V52.9743ZM37.0525 52.9743V52.1698M37.0525 52.1698C37.0676 52.1714 37.0828 52.1729 37.0979 52.1743L37.1025 52.1245M37.0525 52.1698C36.4386 52.1064 35.8446 51.9146 35.3092 51.6067C34.7607 51.2913 34.2865 50.8614 33.919 50.3463L33.917 50.3435L33.9171 50.3435C33.8369 50.2131 33.7927 50.0637 33.7889 49.9107C33.7851 49.7576 33.8219 49.6063 33.8956 49.4721C33.9693 49.3379 34.0772 49.2256 34.2083 49.1466C34.3395 49.0676 34.4892 49.0248 34.6423 49.0224L34.6446 49.0224L34.6446 49.0224C34.7807 49.0266 34.9144 49.0602 35.0362 49.1212C35.1576 49.1819 35.2644 49.2681 35.3492 49.3741M37.0525 52.1698V52.1245H37.1025M37.1025 52.1245L35.3492 49.3741M35.3492 49.3741C35.6597 49.7195 36.0371 49.9983 36.4585 50.1936C36.8801 50.3889 37.337 50.4966 37.8015 50.5101C38.4884 50.51 38.9886 50.3966 39.3159 50.1736C39.6398 49.953 39.8009 49.6208 39.8009 49.1636C39.8009 48.6367 39.4743 48.2978 38.9616 48.0279C38.5755 47.8246 38.0936 47.6654 37.5828 47.4966C37.412 47.4402 37.2381 47.3827 37.0634 47.3222C36.3701 47.0819 35.6691 46.7942 35.1417 46.3335C34.6117 45.8705 34.2586 45.2345 34.2586 44.3047C34.2586 43.6183 34.4747 42.9753 34.9402 42.4769C35.3985 41.986 36.0946 41.6397 37.0525 41.527V40.706C37.0525 40.5055 37.1322 40.3132 37.2739 40.1715C37.4157 40.0297 37.608 39.9501 37.8085 39.9501C38.0089 39.9501 38.2012 40.0297 38.343 40.1715C38.4847 40.3132 38.5644 40.5055 38.5644 40.706V41.5431C39.7676 41.7023 40.7674 42.1891 41.2886 42.9244L41.2892 42.9252L41.2892 42.9252C41.3922 43.0769 41.448 43.2557 41.4495 43.439L41.4495 43.44C41.4471 43.6685 41.3541 43.8868 41.191 44.0469C41.0279 44.2071 40.808 44.296 40.5794 44.2942L40.5749 44.2942L40.5749 44.294C40.3113 44.2678 40.0672 44.1434 39.8912 43.9455C39.3177 43.4304 38.5721 43.1485 37.8012 43.1554L37.8008 43.1554C37.1779 43.1554 36.7577 43.3017 36.4943 43.516C36.2318 43.7295 36.1198 44.0146 36.1198 44.3047C36.1198 44.7718 36.4424 45.0742 36.9576 45.3243C37.3077 45.4942 37.7354 45.6348 38.1922 45.7849C38.4092 45.8562 38.6328 45.9297 38.8577 46.0095C39.5516 46.2557 40.2525 46.5606 40.7799 47.0459C41.3096 47.5332 41.6621 48.2003 41.6621 49.1636C41.6621 50.0098 41.3924 50.7143 40.8611 51.232C40.3384 51.7413 39.5673 52.0651 38.5644 52.1697V52.9744V52.9744L35.3492 49.3741Z" fill="#003C00" stroke="#003C00" stroke-width="0.1"/>
</g>
</g>
</svg>
