<svg width="94" height="94" viewBox="0 0 94 94" fill="none" xmlns="http://www.w3.org/2000/svg">
<rect width="94" height="94" rx="16" fill="#E8E9E3"/>
<path d="M60.9552 38.3601C62.3449 38.3601 63.7346 37.7879 64.7156 36.8069C65.6966 35.8259 66.2688 34.4362 66.2688 33.0465C66.2688 31.6568 65.6966 30.2671 64.7156 29.2861C63.7346 28.3051 62.3449 27.7329 60.9552 27.7329C59.5655 27.7329 58.1758 28.3051 57.1948 29.2861C56.2138 30.2671 55.6416 31.6568 55.6416 33.0465C55.6416 34.4362 56.2138 35.8259 57.1948 36.8069C58.1758 37.8696 59.5655 38.3601 60.9552 38.3601ZM58.3393 30.4306C59.075 29.6949 59.9742 29.3679 60.9552 29.3679C61.9362 29.3679 62.9172 29.7766 63.5711 30.4306C65.0426 31.902 65.0426 34.191 63.5711 35.6624C62.8354 36.3982 61.9362 36.7252 60.9552 36.7252C59.9742 36.7252 58.9933 36.3164 58.3393 35.6624C57.6853 35.0085 57.2766 34.0275 57.2766 33.0465C57.2766 32.0655 57.6853 31.1663 58.3393 30.4306Z" fill="#003C00"/>
<path d="M31.9349 74.0022C32.1801 74.0022 32.3436 73.9204 32.5071 73.7569L37.0033 69.2608C37.3303 68.9338 37.3303 68.4433 37.0033 68.1163C36.6763 67.7893 36.1858 67.7893 35.8588 68.1163L31.3627 72.6125C31.0357 72.9395 31.0357 73.4299 31.3627 73.7569C31.5262 73.9204 31.6897 74.0022 31.9349 74.0022Z" fill="#003C00"/>
<path d="M25.8858 57.0802C25.5588 56.7532 25.0684 56.7532 24.7414 57.0802L20.2452 61.5763C19.9183 61.9033 19.9183 62.3938 20.2452 62.7208C20.4087 62.8843 20.654 62.966 20.8175 62.966C20.981 62.966 21.2262 62.8843 21.3897 62.7208L25.8858 58.2247C26.2128 57.8977 26.2128 57.4072 25.8858 57.0802Z" fill="#003C00"/>
<path d="M24.9049 70.2419C25.1501 70.2419 25.3136 70.1602 25.4771 69.9967L31.5264 63.9473C31.8534 63.6203 31.8534 63.1299 31.5264 62.8029C31.1995 62.4759 30.709 62.4759 30.382 62.8029L24.3326 68.8522C24.0057 69.1792 24.0057 69.6697 24.3326 69.9967C24.4961 70.1602 24.7414 70.2419 24.9049 70.2419Z" fill="#003C00"/>
<path d="M38.6387 67.2171C38.8839 67.2171 39.0474 67.1353 39.2109 66.9718L44.1158 62.067L45.669 63.6202C45.996 63.9472 46.4864 63.9472 46.8134 63.6202L48.7754 61.6582L50.1651 70.7322C50.2468 71.0592 50.4103 71.3045 50.7373 71.3862C50.8191 71.3862 50.9008 71.3862 50.9826 71.3862C51.2278 71.3862 51.3913 71.3045 51.5548 71.141L60.3836 62.394C60.5471 62.2305 60.6288 62.067 60.6288 61.9035L62.182 48.3333L66.8416 43.6737C75.8339 34.6815 74.0354 23.7273 73.4632 21.2748C73.4632 20.9478 73.218 20.6209 72.8092 20.5391C70.6838 20.0486 59.4026 18.0049 50.3286 27.1607L45.669 31.8203L32.0988 33.3735C31.9353 33.3735 31.7719 33.4552 31.6084 33.6187L22.8613 42.3658C22.6161 42.611 22.5344 42.938 22.6979 43.1832C22.8613 43.4285 23.0248 43.6737 23.3518 43.7555L32.4258 45.1452L30.4639 47.1071C30.1369 47.4341 30.1369 47.9246 30.4639 48.2516L32.0171 49.8048L27.1122 54.7097C26.9487 54.8732 26.867 55.0367 26.867 55.2819C26.867 55.5271 26.9487 55.6906 27.1122 55.8541L38.1482 66.8901C38.2299 67.1353 38.4752 67.2171 38.6387 67.2171ZM59.0756 61.413L51.6366 68.852L50.3286 60.1868L60.3836 50.1318L59.0756 61.413ZM25.1503 42.3658L32.5893 34.9267L43.8705 33.6187L33.8155 43.7555L25.1503 42.3658ZM34.633 45.1452L46.6499 33.1283L51.5548 28.2234C59.4843 20.2939 69.1306 21.3566 71.9917 21.9288C72.564 24.79 73.6267 34.4362 65.6972 42.3658L60.7923 47.2706L48.8571 59.3693L46.323 61.9035L39.7831 55.3636L54.4977 40.6491C54.8247 40.3221 54.8247 39.8316 54.4977 39.5046C54.1707 39.1776 53.6803 39.1776 53.3533 39.5046L38.6387 54.2192L32.0988 47.6794L34.633 45.1452ZM33.0798 51.031L37.4124 55.3636L35.4505 57.3256C35.1235 57.6526 35.1235 58.1431 35.4505 58.4701C35.614 58.6336 35.8592 58.7153 36.0227 58.7153C36.1862 58.7153 36.4315 58.6336 36.595 58.4701L38.5569 56.5081L42.8895 60.8407L38.5569 65.1734L28.8289 55.3636L33.0798 51.031Z" fill="#003C00"/>
</svg>
