<svg width="94" height="94" viewBox="0 0 94 94" fill="none" xmlns="http://www.w3.org/2000/svg">
<rect width="94" height="94" rx="16" fill="#E8E9E3"/>
<path d="M74 27.4328C74 23.2545 65.0145 21 56.5599 21C48.1042 21 39.1187 23.2545 39.1187 27.4328V40.2571C38.5584 40.2368 37.9993 40.2267 37.4412 40.2267C28.9856 40.2267 20 42.4812 20 46.6584V66.397C20 70.5742 28.9867 72.8288 37.4412 72.8288C45.8958 72.8288 54.8825 70.5742 54.8825 66.397V60.1352C55.4427 60.1554 56.0019 60.1824 56.5599 60.1824C65.0145 60.1824 74 57.9278 74 53.7506V27.4328ZM53.2444 66.3948C53.2444 68.6595 46.4864 71.1907 37.4401 71.1907C28.3938 71.1907 21.6347 68.6595 21.6347 66.3948V62.6575C22.15 63.0636 22.7732 63.4359 23.4854 63.7757C23.509 63.7881 23.5326 63.7982 23.5551 63.8083C23.7419 63.8961 23.9331 63.9816 24.1311 64.0659C24.1828 64.0885 24.2357 64.111 24.2886 64.1323C24.4698 64.2066 24.6565 64.2797 24.8466 64.3494C25.048 64.4237 25.2561 64.4968 25.4688 64.5666C25.5025 64.5789 25.5363 64.5902 25.57 64.6015C28.7224 65.6432 32.9434 66.2496 37.4401 66.2496C41.9391 66.2496 46.1613 65.6432 49.3147 64.5993C49.3417 64.5913 49.3665 64.5812 49.3935 64.5734C49.6208 64.4968 49.8435 64.4192 50.0584 64.3382C50.2373 64.2718 50.4139 64.2043 50.586 64.1334C50.6434 64.1098 50.6997 64.0851 50.7559 64.0615C50.9482 63.9816 51.1351 63.8972 51.3173 63.8117C51.3443 63.7982 51.3713 63.7881 51.3972 63.7746C52.1071 63.4348 52.7292 63.0625 53.2433 62.6575V66.3948H53.2444ZM53.2444 59.8134C53.2444 59.9371 53.2163 60.0631 53.1758 60.1892C53.1634 60.2263 53.1499 60.2634 53.1331 60.3016C53.0948 60.395 53.0419 60.4872 52.9835 60.5807C52.9306 60.6605 52.8721 60.7404 52.808 60.8157C52.7731 60.8585 52.7348 60.9013 52.6955 60.944C52.5785 61.0688 52.449 61.1882 52.3152 61.2972C52.2859 61.3221 52.2566 61.3468 52.2252 61.3715C52.1081 61.4626 51.9912 61.547 51.8731 61.6269C51.7808 61.6899 51.6852 61.7507 51.585 61.8114C51.4951 61.8665 51.404 61.9216 51.3095 61.9757C48.6802 63.4371 43.5929 64.6093 37.4401 64.6093C31.2896 64.6093 26.2022 63.4371 23.5719 61.9768C23.4752 61.9205 23.3818 61.8642 23.2907 61.8092C23.1951 61.7507 23.1017 61.6921 23.0128 61.6337C22.8913 61.5516 22.7687 61.4638 22.6472 61.367C22.6225 61.3468 22.5999 61.3288 22.5752 61.3086C22.4346 61.1926 22.3018 61.07 22.1792 60.9407C22.142 60.9013 22.1083 60.8608 22.0745 60.8214C22.007 60.7426 21.9463 60.6605 21.8912 60.5773C21.8338 60.4862 21.782 60.395 21.7449 60.3039C21.728 60.2668 21.7146 60.2274 21.7022 60.1892C21.6617 60.0643 21.6335 59.9382 21.6335 59.8145V56.0805C22.6371 56.8714 24.049 57.5374 25.7219 58.0729C25.813 58.1022 25.9064 58.1315 25.9986 58.1596C26.1314 58.2001 26.2664 58.2406 26.4025 58.2788C29.0464 59.0449 32.3202 59.5254 35.828 59.6401C35.8381 59.6401 35.8493 59.6401 35.8595 59.6412C36.0991 59.6492 36.3398 59.6547 36.5817 59.6604C36.6796 59.6615 36.7764 59.6615 36.8731 59.6637C37.061 59.6648 37.2489 59.6705 37.4379 59.6705C37.6269 59.6705 37.8137 59.6648 38.0027 59.6637C38.0994 59.6615 38.1961 59.6615 38.294 59.6604C38.5359 59.6547 38.7755 59.6492 39.0163 59.6412C39.0264 59.6401 39.0377 59.6401 39.0478 59.6401C42.5601 59.5254 45.8361 59.0449 48.4811 58.2765C48.6127 58.2394 48.7433 58.2012 48.8715 58.1607C48.9671 58.1314 49.0639 58.101 49.1584 58.0707C50.829 57.5363 52.2398 56.8714 53.2422 56.0794V59.8134H53.2444ZM53.2444 53.2342C53.2444 53.3557 53.2163 53.4783 53.1781 53.5998C53.1634 53.6449 53.1477 53.6887 53.1286 53.7315C53.0971 53.8069 53.0532 53.8834 53.0082 53.9565C52.9385 54.0678 52.8609 54.1758 52.7697 54.2794C52.7562 54.2962 52.7426 54.3108 52.7291 54.3255C52.4524 54.6293 52.1026 54.8959 51.7763 55.1096C51.747 55.1288 51.7167 55.1479 51.6863 55.167C51.5502 55.2536 51.4073 55.3369 51.2588 55.4224C48.8636 56.7353 44.485 57.8086 39.1321 57.9976C39.1152 57.9998 39.0985 57.9998 39.0816 57.9998C38.5438 58.02 37.9959 58.0291 37.4401 58.0291C36.8833 58.0291 36.3364 58.0189 35.7976 57.9998C35.7807 57.9998 35.7639 57.9998 35.7481 57.9976C30.3963 57.8086 26.0189 56.7353 23.6226 55.4235C23.4719 55.338 23.3256 55.2525 23.1884 55.1648C23.1614 55.1479 23.1355 55.131 23.1096 55.1142C22.7799 54.8993 22.4267 54.6282 22.1477 54.3232C22.1376 54.3097 22.1263 54.2996 22.1162 54.2861C22.0228 54.1804 21.9418 54.069 21.8709 53.9543C21.8271 53.8811 21.7832 53.808 21.7528 53.7337C21.7337 53.6898 21.7179 53.646 21.7033 53.601C21.6651 53.4795 21.6358 53.3569 21.6358 53.2354V49.4923C21.8271 49.6442 22.034 49.7916 22.2591 49.9367C22.3468 49.9941 22.4447 50.0481 22.5381 50.1021C22.5538 50.1122 22.5707 50.1224 22.5864 50.1314C22.7271 50.2135 22.8699 50.2957 23.0207 50.3778C23.0534 50.3957 23.0905 50.4115 23.1231 50.4295C24.2943 51.0405 25.7578 51.5624 27.4353 51.9775C27.46 51.9843 27.4848 51.991 27.5106 51.9978C27.7536 52.0574 28.0035 52.1125 28.2566 52.1677C28.3016 52.1778 28.3454 52.1891 28.3904 52.1981L28.4298 52.2071C29.043 52.3365 29.6809 52.4534 30.3367 52.5569C30.3434 52.5581 30.3502 52.5603 30.3581 52.5603L30.5864 52.5974C30.6045 52.5997 30.6214 52.6042 30.6394 52.6065L30.6619 52.6098C30.6777 52.6121 30.6944 52.6132 30.7091 52.6166C31.3177 52.7054 31.9421 52.7809 32.5789 52.8472C32.5958 52.8484 32.6103 52.8506 32.6261 52.8528L32.6576 52.8551C34.191 53.0092 35.7976 53.0914 37.4412 53.0914C39.085 53.0914 40.6915 53.0092 42.2237 52.8551L42.2564 52.8528C42.2732 52.8506 42.289 52.8484 42.307 52.8461C42.946 52.7809 43.5726 52.7054 44.1824 52.6143C44.1959 52.6132 44.2105 52.6109 44.224 52.6098L44.2431 52.6065C44.3062 52.5974 44.3657 52.5862 44.4277 52.5772L44.5266 52.5603C44.53 52.5603 44.5346 52.5581 44.5379 52.5581C45.1927 52.4546 45.8283 52.3398 46.4414 52.2082L46.491 52.1981C46.5472 52.1868 46.6001 52.1734 46.6552 52.161C46.8982 52.1081 47.1401 52.053 47.3752 51.9967C47.3909 51.9922 47.4067 51.9876 47.4225 51.9843C48.2696 51.7739 49.0639 51.5388 49.794 51.2778C49.7963 51.2767 49.8007 51.2755 49.803 51.2744H49.8041C50.3666 51.073 50.8931 50.857 51.3747 50.6264L51.3781 50.6252C51.5862 50.5252 51.7797 50.4239 51.9642 50.3227C52.0238 50.2923 52.079 50.2586 52.1363 50.2259C52.2713 50.1483 52.3996 50.0717 52.5222 49.9953C52.5537 49.9751 52.5897 49.9559 52.6201 49.9356C52.6392 49.9221 52.655 49.9108 52.6741 49.8973C52.862 49.7747 53.0352 49.6511 53.1927 49.5273C53.2085 49.5149 53.2276 49.5047 53.2422 49.4923V53.2342H53.2444ZM53.2017 46.9588C53.1995 46.9678 53.1938 46.9768 53.1916 46.9858C53.1646 47.078 53.1263 47.1714 53.0757 47.2659C53.0712 47.2761 53.0645 47.2851 53.0588 47.2941C53.006 47.3897 52.9419 47.4853 52.8664 47.581C52.862 47.5877 52.8563 47.5945 52.8507 47.6012C52.4266 48.1299 51.6694 48.6699 50.6221 49.1717C50.2688 49.3383 49.8649 49.507 49.3698 49.6893L49.2506 49.7342C48.3326 50.0628 47.2886 50.3541 46.1489 50.5982L45.8036 50.6691C45.3096 50.7704 44.8 50.8604 44.2758 50.9425L43.9844 50.9909C43.3724 51.081 42.7424 51.1586 42.0944 51.2227L41.6894 51.2586C41.1639 51.3071 40.6273 51.3442 40.0817 51.3757L39.5203 51.4038C38.1556 51.4634 36.7268 51.4634 35.3633 51.4038L34.8008 51.3757C34.2563 51.3453 33.7208 51.3071 33.1943 51.2586L32.7881 51.2227C32.1401 51.1586 31.5101 51.081 30.9003 50.9909L30.6079 50.9425C30.0814 50.8604 29.5717 50.7693 29.0171 50.6568L28.7325 50.5982C27.595 50.3541 26.551 50.0639 25.633 49.7342L25.4609 49.669C25.0176 49.5058 24.6137 49.3383 24.2099 49.1481C24.0085 49.0514 23.8183 48.9523 23.6383 48.8534C23.5911 48.8275 23.5506 48.8005 23.5044 48.7746C23.3717 48.697 23.239 48.6193 23.1186 48.5417C23.1163 48.5406 23.114 48.5384 23.1118 48.5372C22.9633 48.4393 22.8272 48.3415 22.7001 48.2436C22.6888 48.2346 22.6776 48.2267 22.6674 48.2189C22.5403 48.1187 22.4244 48.0175 22.3198 47.9173C22.3097 47.9084 22.3007 47.8971 22.2905 47.8892C22.1983 47.797 22.1162 47.707 22.042 47.6158C22.0296 47.6012 22.0172 47.5855 22.0048 47.5686C21.9351 47.4808 21.8777 47.392 21.8271 47.3031C21.8203 47.2896 21.8102 47.2772 21.8034 47.2637C21.7539 47.1714 21.718 47.0803 21.6898 46.9903C21.6864 46.9791 21.6807 46.9689 21.6774 46.9588C21.6493 46.8576 21.6347 46.7563 21.6347 46.6584C21.6347 44.3949 28.3938 41.8636 37.4401 41.8636C46.4864 41.8636 53.2444 44.3949 53.2444 46.6584C53.2444 46.7552 53.2298 46.8565 53.2017 46.9588ZM72.3631 53.7484C72.3631 56.013 65.6039 58.5443 56.5588 58.5443C55.9873 58.5443 55.4315 58.5286 54.8814 58.5083V53.5717C54.9039 53.5717 54.9253 53.574 54.9489 53.574C54.959 53.5751 54.9702 53.5751 54.9804 53.5751C55.22 53.5841 55.4608 53.5909 55.7026 53.5942C55.7994 53.5953 55.8973 53.5965 55.994 53.5976C56.1819 53.5999 56.3687 53.6044 56.5588 53.6044C56.7478 53.6044 56.9346 53.5999 57.1236 53.5976C57.2203 53.5965 57.317 53.5953 57.4149 53.5942C57.6557 53.5909 57.8964 53.5841 58.1372 53.5751C58.1473 53.5751 58.1586 53.5751 58.1687 53.5751C61.6742 53.4614 64.9458 52.9811 67.5885 52.2161C67.728 52.1756 67.8664 52.135 68.0025 52.0923C68.0937 52.0653 68.1836 52.0361 68.2725 52.0091C69.9465 51.4725 71.3596 50.8075 72.3631 50.0155V53.7484ZM72.3631 47.1703C72.3631 47.2907 72.3349 47.4144 72.2956 47.5359C72.2809 47.581 72.2653 47.6249 72.2472 47.6676C72.2157 47.743 72.1718 47.8183 72.1257 47.8937C72.056 48.004 71.9784 48.112 71.8861 48.2177C71.8738 48.2312 71.8614 48.2459 71.8489 48.2605C71.57 48.5653 71.2167 48.8342 70.8893 49.0491C70.8634 49.066 70.8387 49.0818 70.8117 49.0975C70.6734 49.1864 70.5259 49.2741 70.3741 49.3573C67.9789 50.6703 63.6003 51.7436 58.2508 51.9336C58.2339 51.9336 58.2171 51.9348 58.2002 51.9348C57.6624 51.9539 57.1145 51.9629 56.5588 51.9629C56.0019 51.9629 55.4551 51.9528 54.9162 51.9348C54.9038 51.9348 54.8926 51.9336 54.8814 51.9336V46.9858C55.4349 47.0083 55.9918 47.024 56.5588 47.024C61.0645 47.024 65.2923 46.4143 68.4469 45.368C68.4514 45.3658 68.4559 45.3646 68.4615 45.3635C68.7271 45.2758 68.9858 45.1836 69.2355 45.0891C69.3919 45.0305 69.546 44.972 69.6968 44.9102C69.7632 44.8843 69.8261 44.855 69.8914 44.8292C70.0748 44.7516 70.2526 44.6717 70.4258 44.5907C70.4584 44.5749 70.4922 44.5591 70.5248 44.5445C71.2302 44.2047 71.8501 43.8335 72.3631 43.4297V47.1703ZM72.3631 40.5878C72.3631 40.7115 72.3349 40.8376 72.2944 40.9625C72.2809 41.0007 72.2686 41.0378 72.2518 41.076C72.2134 41.1694 72.1617 41.2616 72.1021 41.355C72.0504 41.435 71.9907 41.5126 71.9278 41.5891C71.8917 41.633 71.8535 41.6757 71.8118 41.7195C71.696 41.8422 71.5699 41.9592 71.4372 42.0695C71.4045 42.0954 71.3731 42.1224 71.3393 42.1482C71.2258 42.2382 71.1098 42.3215 70.9951 42.3991C70.9006 42.4643 70.7993 42.5274 70.6947 42.5904C70.6092 42.6444 70.5215 42.6961 70.4303 42.749C67.8022 44.2115 62.7116 45.3838 56.5566 45.3838C55.8703 45.3838 55.2054 45.3624 54.5495 45.3332C53.1185 42.497 47.1412 40.7847 40.751 40.3425V36.8538C41.7546 37.6447 43.1654 38.3119 44.8383 38.8462C44.9294 38.8755 45.0239 38.9048 45.1173 38.934C45.2501 38.9734 45.3851 39.0128 45.5201 39.0521C48.1639 39.8182 51.4377 40.2987 54.9455 40.4134C54.9567 40.4145 54.9669 40.4145 54.977 40.4145C55.2166 40.4225 55.4573 40.428 55.6992 40.4337C55.796 40.4348 55.8939 40.4348 55.9907 40.437C56.1797 40.4381 56.3664 40.4438 56.5566 40.4438C56.7456 40.4438 56.9323 40.4381 57.1213 40.437C57.2181 40.4348 57.3159 40.4348 57.4126 40.4337C57.6534 40.428 57.8942 40.4225 58.135 40.4145C58.1451 40.4145 58.1563 40.4145 58.1664 40.4134C61.6787 40.2987 64.9548 39.8182 67.5997 39.0499C67.7314 39.0128 67.8608 38.9745 67.9901 38.934C68.0869 38.9048 68.1836 38.8744 68.2793 38.844C69.9499 38.3096 71.3596 37.6447 72.3619 36.8527V40.5878H72.3631ZM72.3631 34.0087C72.3631 34.1302 72.3349 34.2528 72.2956 34.3754C72.2809 34.4193 72.2663 34.4631 72.2472 34.5059C72.2146 34.5813 72.1708 34.6589 72.1246 34.7343C72.056 34.8434 71.9795 34.9503 71.8894 35.0527C71.8749 35.0695 71.8603 35.0853 71.8456 35.1022C71.57 35.4037 71.2224 35.6692 70.8983 35.8818C70.8668 35.9032 70.8342 35.9223 70.8016 35.9437C70.6666 36.0292 70.5259 36.1125 70.3797 36.1946C67.9845 37.5086 63.6059 38.583 58.2508 38.7732C58.2339 38.7743 58.2182 38.7743 58.2013 38.7743C57.6636 38.7945 57.1156 38.8035 56.5599 38.8035C56.003 38.8035 55.4562 38.7934 54.9173 38.7743C54.9005 38.7743 54.8837 38.7743 54.8668 38.7732C49.5151 38.583 45.1364 37.5086 42.7401 36.1969C42.5916 36.1125 42.4476 36.0292 42.3115 35.9404C42.2823 35.9223 42.253 35.9043 42.2249 35.8852C41.8963 35.6703 41.5464 35.4026 41.2675 35.0988C41.2562 35.0842 41.2439 35.0707 41.2315 35.0572C41.138 34.9514 41.0604 34.8434 40.9895 34.7309C40.9446 34.6555 40.9007 34.5813 40.8703 34.507C40.8512 34.4631 40.8355 34.4182 40.8208 34.3754C40.7826 34.2528 40.7533 34.1302 40.7533 34.0087V30.2657C40.9435 30.4164 41.1516 30.5649 41.3766 30.71C41.4632 30.7663 41.5599 30.8192 41.651 30.8743C41.6702 30.8844 41.6894 30.8958 41.7073 30.907C41.8457 30.9891 41.9864 31.0701 42.1338 31.1489C42.1754 31.1713 42.2192 31.1916 42.2608 31.2141C43.4241 31.8171 44.8732 32.3323 46.5315 32.7453C46.564 32.7543 46.5967 32.7632 46.6293 32.77C46.8622 32.8263 47.1007 32.8813 47.3415 32.9343C47.3977 32.9467 47.4517 32.9602 47.5068 32.9714L47.5575 32.9815C48.1706 33.112 48.8085 33.229 49.4643 33.3325L49.4677 33.3336L49.7737 33.3831C49.7929 33.3865 49.812 33.3876 49.83 33.3899C50.4263 33.4776 51.0394 33.553 51.6626 33.616C51.6886 33.6183 51.7133 33.6239 51.7403 33.6261L51.7898 33.6306C53.3165 33.7837 54.9173 33.8647 56.5554 33.8647C58.1912 33.8647 59.7898 33.7837 61.3154 33.6318L61.3705 33.6261C61.3998 33.6239 61.4268 33.6183 61.456 33.6149C62.0815 33.5508 62.6969 33.4753 63.2943 33.3876C63.3078 33.3865 63.3213 33.3842 63.3337 33.3831L63.3516 33.3798C63.3899 33.3742 63.426 33.3674 63.4631 33.3618L63.6374 33.3336C63.6442 33.3325 63.6509 33.3314 63.6588 33.3302C64.3102 33.2279 64.9436 33.1131 65.5522 32.9815L65.6051 32.9714C65.6659 32.9579 65.7232 32.9444 65.7828 32.9309C66.0169 32.8792 66.2508 32.8263 66.477 32.7712C66.5254 32.7588 66.5726 32.7463 66.621 32.734C67.4265 32.5315 68.1848 32.3076 68.8823 32.0578C68.8924 32.0545 68.9037 32.0511 68.9127 32.0477C69.4751 31.8452 70.0039 31.6303 70.4844 31.4008C70.4865 31.3997 70.4888 31.3986 70.4911 31.3974C70.7003 31.2962 70.8938 31.1961 71.0794 31.0937C71.1368 31.0633 71.1908 31.0307 71.2459 30.9992C71.3821 30.9227 71.5125 30.8439 71.6363 30.7674C71.6679 30.7472 71.7038 30.7281 71.7342 30.7079C71.7534 30.6954 71.7691 30.683 71.7871 30.6695C71.975 30.5469 72.1482 30.4232 72.3068 30.3006C72.3226 30.2871 72.3406 30.2769 72.3564 30.2645V34.0087H72.3631ZM72.3203 27.7333C72.3181 27.7434 72.3125 27.7524 72.3091 27.7614C72.2809 27.8525 72.2438 27.947 72.1932 28.0404C72.1876 28.0505 72.1809 28.0607 72.1752 28.0696C72.1223 28.1641 72.0594 28.2598 71.9839 28.3554C71.9784 28.3632 71.9727 28.37 71.9671 28.3767C71.543 28.9055 70.7847 29.4444 69.7384 29.9462C69.3863 30.1127 68.9824 30.2814 68.4964 30.4603L68.3681 30.5087C67.4468 30.8383 66.4039 31.1285 65.2664 31.3727L64.9211 31.4436C64.4272 31.5449 63.9187 31.6349 63.3899 31.717L63.1019 31.7653C62.4899 31.8543 61.8599 31.933 61.213 31.9971L60.8069 32.0331C60.2815 32.0804 59.7448 32.1186 59.2026 32.1501L58.6389 32.1783C57.2754 32.2378 55.8477 32.2378 54.4809 32.1783L53.9206 32.1501C53.375 32.1197 52.8394 32.0804 52.3129 32.0331L51.9079 31.9971C51.2599 31.933 50.6299 31.8543 50.0167 31.7653L49.7276 31.717C49.2011 31.6349 48.6915 31.5449 48.1998 31.4436L47.8522 31.3727C46.7137 31.1285 45.6708 30.8372 44.7472 30.5064L44.5795 30.4434C44.1351 30.2803 43.7312 30.1127 43.3285 29.9226C43.1271 29.8258 42.9358 29.7268 42.757 29.6278C42.7165 29.6041 42.6805 29.5817 42.6411 29.5581C42.5005 29.4771 42.3621 29.3961 42.2372 29.3139L42.235 29.3128C42.0864 29.2149 41.9503 29.117 41.8221 29.0181C41.8098 29.0079 41.7974 29 41.785 28.9911C41.659 28.892 41.5453 28.793 41.4419 28.6929C41.4295 28.6806 41.4182 28.6693 41.407 28.658C41.3169 28.5691 41.2359 28.4814 41.1639 28.3925C41.1504 28.3745 41.137 28.3588 41.1224 28.3396C41.0549 28.253 40.9975 28.1653 40.948 28.0797C40.9401 28.0651 40.93 28.0505 40.922 28.0359C40.8737 27.9447 40.8377 27.8548 40.8096 27.7659C40.8062 27.7535 40.8005 27.7422 40.7972 27.731C40.7691 27.6309 40.7545 27.5296 40.7545 27.4328C40.7545 25.1682 47.5136 22.6369 56.5599 22.6369C65.6051 22.6369 72.3642 25.1682 72.3642 27.4328C72.3631 27.5307 72.3484 27.6309 72.3203 27.7333Z" fill="#003C00"/>
</svg>
