<svg width="94" height="94" viewBox="0 0 94 94" fill="none" xmlns="http://www.w3.org/2000/svg">
<rect width="94" height="94" rx="16" fill="#E8E9E3"/>
<path d="M33.0586 60.0352L33.0586 60.1852L33.2086 60.1852L34.369 60.1852L34.519 60.1852L34.519 60.0352C34.519 43.1149 52.1139 29.2907 73.821 29.2907L73.971 29.2907L73.971 29.1407L73.971 27.9804L73.971 27.8304L73.821 27.8304C51.3795 27.8304 33.0586 42.2461 33.0586 60.0352Z" fill="#003C00" stroke="#003C00" stroke-width="0.3"/>
<path d="M67.3279 61.5059L67.2129 61.4096L67.1166 61.5246L66.3717 62.4146L66.2754 62.5296L66.3904 62.6259L71.0866 66.5573H26.3968V24.9134L30.3282 29.6096L30.4245 29.7246L30.5395 29.6283L31.4295 28.8834L31.5445 28.7871L31.4482 28.6721L25.7816 21.9037L25.6666 21.7663L25.5516 21.9037L19.885 28.6721L19.7887 28.7871L19.9037 28.8834L20.7937 29.6283L20.9087 29.7246L21.005 29.6096L24.9364 24.9134V67.8677V68.0177H25.0864H71.0866L66.3904 71.9491L66.2754 72.0453L66.3717 72.1604L67.1166 73.0504L67.2129 73.1654L67.3279 73.0691L74.0963 67.4025L74.2337 67.2875L74.0963 67.1725L67.3279 61.5059Z" fill="#003C00" stroke="#003C00" stroke-width="0.3"/>
</svg>
