<svg width="80" height="80" viewBox="0 0 80 80" fill="none" xmlns="http://www.w3.org/2000/svg">
<g id="Group 14">
<g id="Vector">
<path d="M28.923 18.2761C23.0524 18.2761 18.276 23.0525 18.276 28.9231C18.276 34.7937 23.0524 39.5701 28.923 39.5701C34.7936 39.5701 39.57 34.7937 39.57 28.9231C39.57 23.0525 34.7936 18.2761 28.923 18.2761ZM28.923 37.9321C23.9558 37.9321 19.914 33.8903 19.914 28.9231C19.914 23.9558 23.9558 19.9141 28.923 19.9141C33.5815 19.9141 37.425 23.4677 37.8853 28.0066L26.0598 34.7642L26.8722 36.186L37.8771 29.8977C37.389 34.4079 33.561 37.9321 28.923 37.9321Z" fill="#003C00"/>
<path d="M63.321 15.0001H58.407V16.6381H61.3439L56.6077 21.3743L53.8599 20.0001C53.7136 19.9267 53.5487 19.899 53.3865 19.9205C53.2242 19.9419 53.0722 20.0116 52.95 20.1204L46.0507 26.2523L44.1204 24.9648C43.9936 24.8809 43.8461 24.8337 43.6941 24.8285C43.5422 24.8233 43.3918 24.8603 43.2596 24.9353L42.3865 25.4341C40.8313 19.4431 35.3939 15.0001 28.923 15.0001C21.2457 15.0001 15 21.2458 15 28.9231C15 35.7609 19.9582 41.4505 26.466 42.6159V44.4841H24.828C24.6108 44.4841 24.4025 44.5703 24.2489 44.7239C24.0953 44.8775 24.009 45.0858 24.009 45.3031V48.5791C24.009 48.7963 24.0953 49.0046 24.2489 49.1582C24.4025 49.3118 24.6108 49.3981 24.828 49.3981V60.0451C24.828 62.303 26.665 64.1401 28.923 64.1401C31.181 64.1401 33.018 62.303 33.018 60.0451V49.3981C33.2352 49.3981 33.4435 49.3118 33.5971 49.1582C33.7507 49.0046 33.837 48.7963 33.837 48.5791V45.3031C33.837 45.0858 33.7507 44.8775 33.5971 44.7239C33.4435 44.5703 33.2352 44.4841 33.018 44.4841H31.38V42.6159C37.8878 41.4505 42.846 35.7609 42.846 28.9231C42.846 28.3145 42.7936 27.7199 42.7174 27.1319L43.6322 26.6094L45.6675 27.9665C45.8179 28.0677 45.9977 28.1158 46.1786 28.1032C46.3594 28.0906 46.5309 28.018 46.6658 27.8969L53.6224 21.7134L56.4029 23.1032C56.5567 23.18 56.7307 23.2064 56.9003 23.1788C57.0699 23.1511 57.2266 23.0709 57.348 22.9493L62.502 17.7961V20.7331H64.14V15.8191C64.14 15.6018 64.0537 15.3935 63.9001 15.2399C63.7465 15.0863 63.5382 15.0001 63.321 15.0001ZM31.38 60.0451C31.38 61.3997 30.2776 62.5021 28.923 62.5021C27.5684 62.5021 26.466 61.3997 26.466 60.0451V49.3981H31.38V60.0451ZM32.199 47.7601H25.647V46.1221H32.199V47.7601ZM29.742 42.8174V44.4841H28.104V42.8174C28.6732 42.8559 29.1728 42.8559 29.742 42.8174ZM30.4611 41.1008H30.4594C30.249 41.127 30.0655 41.1425 29.878 41.1597C29.5618 41.1843 29.2457 41.2081 28.923 41.2081C28.6003 41.2081 28.2842 41.1843 27.968 41.1597C27.7813 41.1434 27.597 41.127 27.3866 41.1008H27.3849C21.3358 40.3407 16.638 35.1753 16.638 28.9231C16.638 22.1491 22.1491 16.6381 28.923 16.6381C35.6969 16.6381 41.208 22.1491 41.208 28.9231C41.208 35.1753 36.5102 40.3407 30.4611 41.1008Z" fill="#003C00"/>
<path d="M63.321 24.0091H56.769C56.5518 24.0091 56.3435 24.0953 56.1899 24.2489C56.0363 24.4025 55.95 24.6108 55.95 24.8281V33.0181H50.217C49.9998 33.0181 49.7915 33.1043 49.6379 33.2579C49.4843 33.4115 49.398 33.6198 49.398 33.8371V37.1131H43.665C43.4478 37.1131 43.2395 37.1993 43.0859 37.3529C42.9323 37.5065 42.846 37.7148 42.846 37.9321V47.7601H37.113C36.8958 47.7601 36.6875 47.8463 36.5339 47.9999C36.3803 48.1535 36.294 48.3619 36.294 48.5791V63.3211C36.294 63.5383 36.3803 63.7466 36.5339 63.9002C36.6875 64.0538 36.8958 64.1401 37.113 64.1401H63.321C63.5382 64.1401 63.7465 64.0538 63.9001 63.9002C64.0537 63.7466 64.14 63.5383 64.14 63.3211V24.8281C64.14 24.6108 64.0537 24.4025 63.9001 24.2489C63.7465 24.0953 63.5382 24.0091 63.321 24.0091ZM37.932 49.3981H42.846V62.5021H37.932V49.3981ZM44.484 38.7511H49.398V62.5021H44.484V38.7511ZM51.036 34.6561H55.95V62.5021H51.036V34.6561ZM62.502 62.5021H57.588V25.6471H62.502V62.5021Z" fill="#003C00"/>
</g>
</g>
</svg>
