<svg width="38" height="38" viewBox="0 0 38 38" fill="none" xmlns="http://www.w3.org/2000/svg">
<path d="M33.0449 28.8716C33.1696 32.0199 30.5994 34.6083 27.4129 34.6083C24.6361 34.6083 22.3295 32.6426 21.8629 30.0559C21.7988 29.6966 21.439 29.4664 21.081 29.5641C21.0756 29.5641 21.072 29.5658 21.0667 29.5676C20.7033 29.6652 20.511 30.0507 20.6535 30.3926C20.9224 31.0362 21.072 31.7409 21.072 32.4804C21.072 35.6026 18.4253 38.1195 15.2103 37.9956C12.3052 37.884 9.9363 35.5781 9.80627 32.7351C9.73146 31.1199 10.3691 29.6513 11.4342 28.5978C11.6818 28.3536 11.6462 27.9507 11.3666 27.7431C11.363 27.7396 11.3594 27.7379 11.3559 27.7344C11.078 27.5286 10.6773 27.6018 10.5027 27.8966C9.48566 29.6007 7.56202 30.7222 5.38011 30.628C2.47506 30.5007 0.118593 28.1809 0.00459931 25.3343C-0.121862 22.1843 2.44834 19.5924 5.6366 19.5924C5.83074 19.5924 6.02311 19.6028 6.21191 19.622C6.58773 19.6604 6.91903 19.3778 6.91724 19.0063V18.9924C6.91724 18.6209 6.58773 18.3383 6.21191 18.3767C6.02311 18.3958 5.83074 18.4063 5.6366 18.4063C2.44656 18.4046 -0.123644 15.8127 0.00459931 12.6626C0.118593 9.82127 2.46971 7.50321 5.37121 7.37239C7.55846 7.27472 9.48388 8.39799 10.5027 10.1038C10.6773 10.3969 11.0798 10.4684 11.3559 10.2643L11.3666 10.2556C11.6462 10.048 11.68 9.64511 11.4325 9.39917C10.4243 8.40148 9.80093 7.03227 9.80093 5.51654C9.80093 2.33335 12.5581 -0.221931 15.8622 0.015283C18.6087 0.21238 20.8316 2.37172 21.0542 5.05956C21.129 5.9683 20.9794 6.83343 20.6535 7.60961C20.511 7.94973 20.7033 8.33694 21.0667 8.43462L21.081 8.43811C21.439 8.53404 21.7988 8.30555 21.8629 7.94798C22.3278 5.35957 24.6361 3.39209 27.4129 3.39209C30.53 3.39209 33.0574 5.87062 33.0485 8.92649C33.0414 11.8306 30.6867 14.2655 27.7264 14.4225C26.0628 14.5115 24.5471 13.8923 23.4606 12.8457L23.457 12.851C21.968 11.6074 20.0675 10.9219 18.1064 10.9219C13.5556 10.9219 9.85436 14.5464 9.85436 19.0028C9.85436 23.4593 13.5556 27.0838 18.1064 27.0838C20.1316 27.0838 22.0731 26.3599 23.5835 25.0465C24.6771 24.0541 26.1733 23.4802 27.8048 23.5884C30.6564 23.7768 32.9345 26.0791 33.0449 28.8768V28.8716Z" fill="#00E046"/>
</svg>
