<svg width="114" height="38" viewBox="0 0 114 38" fill="none" xmlns="http://www.w3.org/2000/svg">
<path d="M42.9179 8.58811C43.4077 8.21136 43.9616 8.01949 44.5619 8.01949C46.1667 8.01949 47.1392 8.78346 47.5364 10.3567L47.5542 10.4283H49.1252L49.1091 10.3219C49.0504 9.94511 48.9506 9.58231 48.8117 9.24219C48.6727 8.90032 48.4733 8.56718 48.2203 8.25322C47.9674 7.93751 47.6682 7.66193 47.3298 7.43169C46.9913 7.20145 46.5763 7.01657 46.0972 6.88226C45.6199 6.74796 45.0891 6.67993 44.5191 6.67993C43.6143 6.67993 42.7932 6.92064 42.0807 7.39855C41.37 7.87298 40.8161 8.52008 40.4349 9.31719C40.0555 10.1126 39.8632 11.0073 39.8632 11.9754C39.8632 12.7062 39.9665 13.3969 40.1713 14.0301C40.3762 14.6632 40.6718 15.2283 41.053 15.7097C41.4359 16.1946 41.9311 16.5801 42.526 16.8557C43.1209 17.1313 43.796 17.2708 44.5334 17.2708C44.9127 17.2708 45.2939 17.2307 45.6608 17.1522C46.0313 17.072 46.4018 16.9394 46.7634 16.7545C47.1249 16.5696 47.4598 16.3377 47.7555 16.0656C48.0529 15.7917 48.3201 15.4429 48.5499 15.0278C48.7796 14.6144 48.9506 14.1469 49.0575 13.6394L49.0806 13.5277H47.4883L47.4669 13.5905C47.2193 14.3126 46.831 14.89 46.3127 15.3068C45.798 15.7202 45.2102 15.9295 44.5619 15.9295C44.0703 15.9295 43.6161 15.8179 43.2082 15.5964C42.8003 15.3749 42.4619 15.0766 42.2018 14.7103C41.94 14.3388 41.7334 13.9149 41.5909 13.4458C41.4484 12.9783 41.3754 12.4829 41.3754 11.9754C41.3754 11.3073 41.5107 10.6655 41.7744 10.0655C42.038 9.46894 42.4227 8.97184 42.9179 8.5916V8.58811Z" fill="#003C00"/>
<path d="M58.6187 8.22882C58.1716 7.7544 57.6159 7.37241 56.9676 7.09508C56.3192 6.81775 55.6121 6.67822 54.8658 6.67822C53.8719 6.67822 52.9724 6.91892 52.1923 7.39334C51.4139 7.86777 50.8083 8.51313 50.3933 9.31198C49.9801 10.1091 49.7699 11.0039 49.7699 11.9719C49.7699 12.94 49.9801 13.8365 50.3933 14.6318C50.8083 15.4307 51.4139 16.0761 52.1923 16.5505C52.9707 17.0249 53.8702 17.2656 54.8658 17.2656C55.6121 17.2656 56.3192 17.1261 56.9676 16.8487C57.6159 16.5714 58.1716 16.1912 58.6187 15.715C59.064 15.2406 59.4202 14.6737 59.6731 14.0266C59.9261 13.3812 60.0543 12.6888 60.0543 11.9702C60.0543 11.2516 59.9261 10.5591 59.6731 9.91374C59.4202 9.26838 59.0658 8.69976 58.6187 8.22534V8.22882ZM54.8658 15.9383C54.148 15.9383 53.5121 15.7534 52.976 15.3906C52.4381 15.026 52.0284 14.5429 51.7613 13.9533C51.4923 13.3603 51.3552 12.694 51.3552 11.9719C51.3552 11.2498 51.4923 10.5835 51.7613 9.99048C52.0284 9.40094 52.4381 8.91953 52.976 8.55674C53.5121 8.19568 54.148 8.01254 54.8658 8.01254C55.5836 8.01254 56.2284 8.19568 56.7823 8.55674C57.338 8.91953 57.7637 9.40268 58.0469 9.99397C58.3337 10.5888 58.478 11.2533 58.478 11.9702C58.478 12.687 58.3337 13.3533 58.0469 13.9499C57.762 14.5429 57.3363 15.0278 56.7823 15.3906C56.2284 15.7516 55.5836 15.9348 54.8658 15.9348V15.9383Z" fill="#003C00"/>
<path d="M66.4326 15.0173L63.4189 6.94677H61.1942V16.9987H62.6762V9.05901L65.681 16.9987H67.1843L70.1837 9.05901V16.9987H71.6727V6.94677H69.4481L66.4326 15.0173Z" fill="#003C00"/>
<path d="M78.4767 15.0173L75.463 6.94677H73.2366V16.9987H74.7185V9.05901L77.7251 16.9987H79.2284L82.2261 9.05901V16.9987H83.7151V6.94677H81.4904L78.4767 15.0173Z" fill="#003C00"/>
<path d="M93.7109 8.22882C93.2639 7.7544 92.7081 7.37241 92.0598 7.09508C91.4115 6.81775 90.7043 6.67822 89.958 6.67822C88.9642 6.67822 88.0647 6.91892 87.2845 7.39334C86.5062 7.86777 85.9006 8.51313 85.4856 9.31198C85.0724 10.1091 84.8622 11.0039 84.8622 11.9719C84.8622 12.94 85.0724 13.8365 85.4856 14.6318C85.9006 15.4307 86.5062 16.0761 87.2845 16.5505C88.0629 17.0249 88.9624 17.2656 89.958 17.2656C90.7043 17.2656 91.4115 17.1261 92.0598 16.8487C92.7081 16.5714 93.2639 16.1912 93.7109 15.715C94.1562 15.2406 94.5124 14.6737 94.7654 14.0266C95.0183 13.3812 95.1465 12.6888 95.1465 11.9702C95.1465 11.2516 95.0183 10.5591 94.7654 9.91374C94.5124 9.26838 94.158 8.69976 93.7109 8.22534V8.22882ZM89.958 15.9383C89.2402 15.9383 88.6044 15.7534 88.0682 15.3906C87.5303 15.026 87.1207 14.5429 86.8535 13.9533C86.5846 13.3603 86.4474 12.694 86.4474 11.9719C86.4474 11.2498 86.5846 10.5835 86.8535 9.99048C87.1207 9.40094 87.5303 8.91953 88.0682 8.55674C88.6044 8.19568 89.2402 8.01254 89.958 8.01254C90.6758 8.01254 91.3206 8.19568 91.8746 8.55674C92.4303 8.91953 92.856 9.40268 93.1392 9.99397C93.4259 10.5888 93.5702 11.2533 93.5702 11.9702C93.5702 12.687 93.4259 13.3533 93.1392 13.9499C92.8542 14.5429 92.4285 15.0278 91.8746 15.3906C91.3206 15.7516 90.6758 15.9348 89.958 15.9348V15.9383Z" fill="#003C00"/>
<path d="M103.153 14.8394L97.991 6.94677H96.2989V16.9917H97.7808V9.09739L102.944 16.9917H104.635V6.94677H103.153V14.8394Z" fill="#003C00"/>
<path d="M113.364 12.5701C113.177 12.3678 112.953 12.1829 112.7 12.0207C112.447 11.8602 112.194 11.7294 111.943 11.6335C111.695 11.5375 111.433 11.4573 111.164 11.3928L109.132 10.9393C108.678 10.8242 108.309 10.6445 108.035 10.4055C107.768 10.1718 107.638 9.90496 107.638 9.591C107.638 9.14448 107.834 8.77645 108.236 8.46423C108.641 8.15202 109.203 7.99155 109.909 7.99155C110.288 7.99155 110.634 8.0526 110.933 8.17295C111.23 8.2933 111.469 8.45028 111.642 8.6404C111.816 8.83401 111.952 9.04331 112.043 9.26309C112.133 9.48286 112.18 9.70612 112.18 9.92589V10.0183H113.697V9.92589C113.697 9.516 113.615 9.11483 113.451 8.73459C113.289 8.35435 113.052 8.00551 112.75 7.69852C112.445 7.3898 112.043 7.13863 111.551 6.95374C111.061 6.76885 110.509 6.67641 109.909 6.67641C109.23 6.67641 108.592 6.80723 108.015 7.06363C107.436 7.32177 106.97 7.67759 106.633 8.12586C106.293 8.57586 106.12 9.07297 106.12 9.60495C106.12 10.0061 106.199 10.3742 106.354 10.6968C106.508 11.0195 106.724 11.2916 106.993 11.5044C107.258 11.712 107.538 11.8829 107.828 12.012C108.117 12.1393 108.43 12.2422 108.763 12.3172L110.796 12.7637C111.303 12.8876 111.711 13.0812 112.007 13.3376C112.299 13.5905 112.44 13.8905 112.44 14.255C112.44 14.7347 112.194 15.1306 111.688 15.4638C111.216 15.7725 110.646 15.933 109.994 15.9365H109.861C109.422 15.919 109.027 15.8353 108.683 15.687C108.341 15.5405 108.071 15.3539 107.876 15.1341C107.68 14.9109 107.529 14.6754 107.431 14.4347C107.333 14.194 107.283 13.9533 107.283 13.7196V13.6271H105.766V13.7196C105.766 14.0527 105.821 14.3893 105.93 14.719C106.038 15.0487 106.206 15.3678 106.43 15.6696C106.655 15.9713 106.929 16.2434 107.248 16.4737C107.566 16.7057 107.958 16.8958 108.411 17.0388C108.863 17.1801 109.358 17.2568 109.886 17.2673H109.994C110.696 17.2673 111.355 17.14 111.952 16.8888C112.579 16.6219 113.083 16.2522 113.446 15.7899C113.813 15.3242 114 14.808 114 14.2568C114 13.9201 113.941 13.6044 113.824 13.3149C113.706 13.0254 113.551 12.7759 113.362 12.5719L113.364 12.5701Z" fill="#003C00"/>
<path d="M47.3868 26.9268C47.1997 26.7245 46.9753 26.5396 46.7224 26.3774C46.4713 26.2169 46.2166 26.0861 45.9654 25.9901C45.7178 25.896 45.456 25.814 45.187 25.7494L43.1548 25.2959C42.7006 25.1808 42.3319 25.0012 42.0576 24.7622C41.7904 24.5285 41.6604 24.2616 41.6604 23.9477C41.6604 23.5011 41.8563 23.1331 42.2588 22.8209C42.6632 22.5087 43.226 22.3482 43.9313 22.3482C44.3107 22.3482 44.6563 22.4093 44.9555 22.5296C45.2529 22.65 45.4916 22.8069 45.6644 22.9971C45.8389 23.1907 45.9743 23.4 46.0669 23.6198C46.1578 23.8395 46.2041 24.0628 46.2041 24.2826V24.375H47.7216V24.2826C47.7216 23.8727 47.6397 23.4715 47.4758 23.0913C47.3137 22.711 47.0768 22.3622 46.7758 22.0552C46.4713 21.7465 46.0687 21.4953 45.5771 21.3104C45.0873 21.1255 44.5351 21.0331 43.9331 21.0331C43.2545 21.0331 42.6168 21.1639 42.0398 21.4203C41.4609 21.6784 40.9942 22.0343 40.6576 22.4825C40.3174 22.9325 40.1446 23.4314 40.1446 23.9616C40.1446 24.3628 40.223 24.7308 40.3779 25.0535C40.5329 25.3762 40.7484 25.6483 41.0174 25.8611C41.2828 26.0686 41.5624 26.2396 41.8527 26.3686C42.1413 26.496 42.4548 26.5989 42.7878 26.6739L44.8201 27.1204C45.3278 27.2442 45.7339 27.4378 46.0313 27.6942C46.3234 27.9472 46.4641 28.2472 46.4641 28.6117C46.4641 29.0914 46.2183 29.4873 45.7125 29.8204C45.2405 30.1292 44.6705 30.2896 44.0186 30.2931H43.885C43.4469 30.2757 43.0514 30.192 42.7077 30.0437C42.3657 29.8972 42.095 29.7106 41.9008 29.4908C41.7049 29.2675 41.5553 29.0321 41.4555 28.7914C41.3576 28.5524 41.3077 28.31 41.3077 28.0762V27.9838H39.7902V28.0762C39.7902 28.4094 39.8454 28.746 39.954 29.0757C40.0627 29.4053 40.2301 29.7245 40.4545 30.0263C40.679 30.328 40.9533 30.5984 41.2721 30.8303C41.5909 31.0623 41.9828 31.2525 42.4352 31.3955C42.8858 31.5368 43.3827 31.6135 43.9117 31.624H44.0204C44.7222 31.624 45.3812 31.4966 45.9779 31.2455C46.6048 30.9786 47.1089 30.6088 47.4723 30.1466C47.8392 29.6809 48.0262 29.1646 48.0262 28.6135C48.0262 28.2768 47.9674 27.9611 47.8499 27.6716C47.7323 27.382 47.5774 27.1326 47.3885 26.9285L47.3868 26.9268Z" fill="#003C00"/>
<path d="M56.834 21.3104H48.2453V22.6255H52.6999C52.6572 22.6395 52.6144 22.6534 52.5717 22.6674C52.3401 22.7476 52.1513 22.8715 52.0106 23.0354C51.8664 23.2029 51.7933 23.4087 51.7933 23.6459V31.3553H53.2752V23.5569C53.2752 23.4261 53.2948 23.3093 53.334 23.2081C53.3732 23.1069 53.4195 23.025 53.473 22.9639C53.5264 22.9029 53.5923 22.8471 53.6707 22.8C53.7508 22.7511 53.8221 22.7162 53.8844 22.6953C53.9485 22.6744 54.018 22.6587 54.0892 22.6482C54.164 22.6377 54.2121 22.6308 54.2389 22.629C54.262 22.6273 54.2798 22.6255 54.2923 22.6255H56.8322V21.3104H56.834Z" fill="#003C00"/>
<path d="M61.3029 21.3104H58.6917L55.3093 31.3553H56.8803L57.8831 28.4041L62.1685 28.3971L63.1998 31.3553H64.7637L61.3225 21.3732L61.3011 21.3104H61.3029ZM61.7215 27.1378H58.3141L59.9937 22.1895L61.7215 27.1378Z" fill="#003C00"/>
<path d="M67.8468 22.9448C68.3367 22.568 68.8906 22.3762 69.4908 22.3762C71.0957 22.3762 72.0682 23.1401 72.4654 24.7134L72.4832 24.7849H74.0541L74.0381 24.6785C73.9793 24.3018 73.8796 23.9372 73.7407 23.5989C73.6 23.257 73.4023 22.9238 73.1493 22.6099C72.8964 22.2942 72.5972 22.0186 72.2588 21.7884C71.9203 21.5599 71.5053 21.375 71.0262 21.2389C70.5488 21.1046 70.0181 21.0366 69.4481 21.0366C68.5433 21.0366 67.7222 21.2773 67.0097 21.7552C66.299 22.2296 65.7451 22.8767 65.3639 23.6739C64.9845 24.4692 64.7922 25.364 64.7922 26.332C64.7922 27.0629 64.8955 27.7536 65.1003 28.3867C65.3051 29.0199 65.6008 29.585 65.982 30.0664C66.3649 30.5513 66.8601 30.9368 67.4568 31.2124C68.0517 31.488 68.7267 31.6275 69.4641 31.6275C69.8453 31.6275 70.2247 31.5874 70.5916 31.5089C70.9621 31.4286 71.3325 31.2961 71.6941 31.1112C72.0557 30.9263 72.3906 30.6943 72.6862 30.4222C72.9837 30.1484 73.2508 29.7995 73.4806 29.3844C73.7104 28.9693 73.8814 28.5036 73.9882 27.996L74.0114 27.8844H72.4191L72.3977 27.9472C72.1501 28.6693 71.7618 29.2466 71.2435 29.6635C70.7287 30.0769 70.141 30.2862 69.4926 30.2862C69.001 30.2862 68.545 30.1746 68.1389 29.953C67.7311 29.7315 67.3926 29.4333 67.1326 29.067C66.8708 28.6972 66.6642 28.2716 66.5217 27.8024C66.3792 27.3332 66.3061 26.8396 66.3061 26.332C66.3061 25.664 66.4415 25.0221 66.7051 24.4221C66.9687 23.8256 67.3535 23.3285 67.8486 22.9483L67.8468 22.9448Z" fill="#003C00"/>
<path d="M78.4696 26.4279C78.3432 26.475 78.1935 26.5466 78.0208 26.6425L83.9556 21.3034H81.8627L76.5994 26.1628V21.3034H75.1175V31.3554H76.5994V27.9245L77.2157 27.3681C77.2246 27.3611 77.2335 27.3559 77.2424 27.3489C77.5595 27.1378 77.9175 27.0716 78.3164 27.1623C78.7332 27.2495 79.0984 27.4867 79.3994 27.8687L82.0034 31.3536H83.9449L80.6622 27.0751C80.062 26.3268 79.3264 26.1053 78.4678 26.4262L78.4696 26.4279Z" fill="#003C00"/>
<path d="M33.0449 28.8716C33.1696 32.0199 30.5994 34.6083 27.4129 34.6083C24.6361 34.6083 22.3295 32.6426 21.8629 30.0559C21.7988 29.6966 21.439 29.4664 21.081 29.5641C21.0756 29.5641 21.072 29.5658 21.0667 29.5676C20.7033 29.6652 20.511 30.0507 20.6535 30.3926C20.9224 31.0362 21.072 31.7409 21.072 32.4804C21.072 35.6026 18.4253 38.1195 15.2103 37.9956C12.3052 37.884 9.9363 35.5781 9.80627 32.7351C9.73146 31.1199 10.3691 29.6513 11.4342 28.5978C11.6818 28.3536 11.6462 27.9507 11.3666 27.7431C11.363 27.7396 11.3594 27.7379 11.3559 27.7344C11.078 27.5286 10.6773 27.6018 10.5027 27.8966C9.48566 29.6007 7.56202 30.7222 5.38011 30.628C2.47506 30.5007 0.118593 28.1809 0.00459931 25.3343C-0.121862 22.1843 2.44834 19.5924 5.6366 19.5924C5.83074 19.5924 6.02311 19.6028 6.21191 19.622C6.58773 19.6604 6.91903 19.3778 6.91724 19.0063V18.9924C6.91724 18.6209 6.58773 18.3383 6.21191 18.3767C6.02311 18.3958 5.83074 18.4063 5.6366 18.4063C2.44656 18.4046 -0.123644 15.8127 0.00459931 12.6626C0.118593 9.82127 2.46971 7.50321 5.37121 7.37239C7.55846 7.27472 9.48388 8.39799 10.5027 10.1038C10.6773 10.3969 11.0798 10.4684 11.3559 10.2643L11.3666 10.2556C11.6462 10.048 11.68 9.64511 11.4325 9.39917C10.4243 8.40148 9.80093 7.03227 9.80093 5.51654C9.80093 2.33335 12.5581 -0.221931 15.8622 0.015283C18.6087 0.21238 20.8316 2.37172 21.0542 5.05956C21.129 5.9683 20.9794 6.83343 20.6535 7.60961C20.511 7.94973 20.7033 8.33694 21.0667 8.43462L21.081 8.43811C21.439 8.53404 21.7988 8.30555 21.8629 7.94798C22.3278 5.35957 24.6361 3.39209 27.4129 3.39209C30.53 3.39209 33.0574 5.87062 33.0485 8.92649C33.0414 11.8306 30.6867 14.2655 27.7264 14.4225C26.0628 14.5115 24.5471 13.8923 23.4606 12.8457L23.457 12.851C21.968 11.6074 20.0675 10.9219 18.1064 10.9219C13.5556 10.9219 9.85436 14.5464 9.85436 19.0028C9.85436 23.4593 13.5556 27.0838 18.1064 27.0838C20.1316 27.0838 22.0731 26.3599 23.5835 25.0465C24.6771 24.0541 26.1733 23.4802 27.8048 23.5884C30.6564 23.7768 32.9345 26.0791 33.0449 28.8768V28.8716Z" fill="#003C00"/>
</svg>
